<svg width="91" height="241" viewBox="0 0 91 241" fill="none" xmlns="http://www.w3.org/2000/svg">
<path d="M4.793 63.9913C4.68473 64.1402 4.57194 64.2981 4.55389 64.4785C4.53585 64.677 4.6351 64.871 4.73887 65.0425C5.80358 66.8877 7.22019 68.5253 8.87591 69.8607C9.71504 70.5375 10.6173 71.1375 11.5693 71.6518C11.8715 71.8142 12.3949 72.2203 12.7513 72.1932C13.2385 72.1571 13.7709 71.4082 14.0551 71.0743C16.8703 67.7945 19.5727 64.4244 22.1668 60.9641C24.2556 58.176 26.2767 55.3247 27.9731 52.284C28.0182 52.2027 28.0678 52.1125 28.0633 52.0178C28.0543 51.7832 27.77 51.6839 27.5535 51.5892C26.8001 51.2598 26.8858 50.6328 26.6016 49.9921C26.2903 49.2928 25.8978 48.6296 25.4331 48.0206C24.5308 46.8341 23.3443 45.8551 21.9683 45.2731C20.7547 44.7588 19.3696 44.6009 18.0658 44.7543C16.6582 44.9167 15.8236 45.449 15.1649 46.7168C14.989 47.0506 14.8221 47.3845 14.6506 47.7228C13.243 50.529 11.9888 53.4118 10.4188 56.1323C8.80372 58.9294 6.70137 61.3927 4.793 63.9913Z" fill="#965547"/>
<path d="M3.15004 67.0505C3.44329 66.3106 3.70044 65.3722 4.28694 64.8083C5.29751 63.8293 6.82691 63.306 8.18487 63.6263C8.96536 63.8113 9.68268 64.1947 10.3459 64.6414C11.1715 65.1963 11.9429 65.855 12.5114 66.6715C15.1145 70.4251 12.6016 75.0178 10.3684 78.239C9.15033 79.9985 7.62093 81.5865 5.73964 82.6016C4.67492 83.1791 3.32148 83.549 2.28383 82.9265C1.11987 82.2317 0.894291 80.6572 0.880757 79.3037C0.835642 75.1261 1.61613 70.9394 3.15004 67.0505Z" fill="#965547"/>
<path d="M55.5473 206.622C58.0106 205.783 60.8889 205.841 62.883 204.172C64.286 202.999 64.9808 201.091 64.841 199.268C64.6966 197.445 63.7717 195.731 62.4408 194.472C61.0829 193.187 59.2557 192.347 57.388 192.366C56.4992 192.375 55.836 192.56 55.1097 193.069C51.9245 195.307 48.7439 197.545 45.5588 199.787C45.2881 199.976 45.0175 200.166 44.7468 200.36C42.897 201.664 41.0609 202.999 39.3736 204.501C38.2592 205.494 37.172 206.617 36.6937 208.034C36.2516 209.329 36.4591 210.944 37.4381 211.95C38.1961 212.726 39.2337 213.204 40.3029 213.398C41.3722 213.592 42.4775 213.52 43.5467 213.317C45.1393 213.015 46.6822 212.415 48.0401 211.53C50.5756 209.87 52.6193 207.628 55.5518 206.626L55.5473 206.622Z" fill="#638845"/>
<path d="M66.1133 165.698C66.0276 164.11 65.6892 162.554 65.5629 160.984C65.4005 158.967 65.1162 157.145 65.3238 155.114C66.8938 139.879 64.3628 124.535 61.3356 109.526C60.9431 107.572 60.5371 105.614 60.0137 103.692C58.1776 104.374 56.2827 105.064 54.3247 104.978C52.6149 104.901 50.9411 104.202 49.6869 103.043C48.3876 101.843 47.3906 100.097 45.6672 99.7087C44.1558 99.3703 43.628 100.453 42.4009 100.742C41.5256 100.945 40.6369 100.133 40.5557 99.1357C41.2504 107.545 42.0941 115.946 43.0866 124.328C43.1588 124.941 43.231 125.551 43.3077 126.164C43.7453 129.791 46.2176 144.305 47.1199 148.031C48.0763 151.988 50.7156 171.924 50.9862 175.854C51.4193 182.17 51.857 188.481 52.2901 194.797C52.3442 195.614 52.4525 196.291 53.2691 196.665C56.3955 198.104 60.2574 197.802 63.1222 195.898C63.2304 195.826 63.3432 195.745 63.3974 195.628C63.438 195.533 63.4425 195.429 63.4425 195.325C63.4425 193.462 63.3748 191.599 63.438 189.736C63.5462 186.347 63.8846 182.842 64.4891 179.517C65.1117 176.102 65.8561 172.696 66.0862 169.226C66.1629 168.053 66.1855 166.876 66.1223 165.703L66.1133 165.698Z" fill="#444F42"/>
<path d="M21.8673 44.0008C20.8837 44.8625 19.8957 45.7242 18.9122 46.5859C18.6776 46.7934 18.4295 47.0099 18.3077 47.2987C18.1633 47.637 18.2039 48.025 18.2626 48.386C18.9438 52.4012 22.0838 55.8886 25.9998 56.9984C27.7683 57.4992 29.6451 57.5443 31.4046 58.0721C31.7384 55.6359 32.5505 53.29 33.4708 51.0071C34.1611 49.2973 34.919 47.601 35.2844 45.7964C35.5957 44.2579 35.6138 42.6564 35.3341 41.1134C35.0363 39.4532 33.6332 36.0786 31.4 37.202C29.2345 38.2983 27.1322 39.6607 25.2283 41.1676C24.0779 42.0789 22.9726 43.0443 21.8673 44.0053V44.0008Z" fill="#0080FF"/>
<path d="M67.1678 219.453C66.8204 220.306 66.5316 221.185 66.4143 222.101C66.2609 223.288 66.3692 224.795 67.1993 225.728C67.9302 226.55 69.0851 226.874 70.1453 226.978C72.6853 227.231 75.302 226.64 77.481 225.313C79.6601 223.987 81.397 221.939 82.3399 219.57C82.9805 217.964 83.2332 216.164 83.9821 214.617C84.6182 213.299 85.5927 212.198 86.3281 210.944C86.9507 209.884 87.2304 208.589 87.3251 207.376C87.5191 204.84 86.7747 202.224 85.1822 200.229C85.0333 200.911 84.8122 202.084 84.0001 202.21C83.1024 202.345 82.5204 201.488 81.7354 201.245C80.8737 200.978 79.9488 200.879 79.051 201.001C78.5728 201.069 77.4765 201.709 77.0705 201.353C75.2298 203.681 68.9498 215.447 67.4745 218.731C67.3663 218.97 67.2625 219.214 67.1587 219.462L67.1678 219.453Z" fill="#638845"/>
<path d="M85.517 156.12C85.3816 155.606 85.2598 155.087 85.1606 154.564C84.4432 150.837 84.6959 146.592 84.8177 142.798C85.1515 132.3 87.4975 121.77 85.9726 111.38C85.4628 107.897 84.5244 104.5 83.5861 101.107C83.1259 99.4424 82.6657 97.7731 82.0657 96.1535C81.8446 95.5625 81.3935 94.8542 80.7799 95.0076C80.4461 95.0888 80.234 95.4091 80.0445 95.6933C77.0173 100.245 71.4907 102.573 66.0724 103.264C60.6496 103.954 55.1636 103.264 49.7002 103.074C49.3799 103.065 49.028 103.065 48.7934 103.286C48.6084 103.462 48.5498 103.728 48.5047 103.981C47.5121 110.031 50.0611 116.726 56.0975 119.004C56.4584 119.14 56.8419 119.27 57.1081 119.55C57.3878 119.848 57.4825 120.272 57.5683 120.669C60.0992 132.448 63.4964 144.084 67.4935 155.453C69.3162 160.636 71.4772 165.928 72.1359 171.419C72.9254 178.028 74.3826 184.588 74.9601 191.283C75.2849 195.036 75.4654 198.799 75.4383 202.566C75.4293 203.563 75.6639 203.87 76.4985 204.384C77.1662 204.795 77.8971 205.097 78.6505 205.3C80.1573 205.706 81.7589 205.729 83.2928 205.444C84.5425 205.21 85.8959 204.664 86.6178 203.545C86.9697 202.999 86.9291 202.201 87.0148 201.574C87.1321 200.716 87.2629 199.859 87.3983 199.002C87.9487 195.573 88.6164 192.167 89.1623 188.743C89.7397 185.125 90.1774 181.475 90.1864 177.807C90.1954 173.499 89.5818 169.195 88.4585 165.039C87.6419 162.017 86.3155 159.143 85.517 156.116V156.12Z" fill="#505A4E"/>
<path d="M11.479 24.3623C14.6821 21.8539 18.5485 20.3516 22.4238 19.1245C25.6225 18.1139 28.8798 17.2657 32.1957 16.7604C35.1733 16.3093 38.1825 16.1334 41.1917 15.9619C41.521 16.7289 41.697 17.5635 41.706 18.3981C38.2682 20.6719 34.8305 22.9502 31.3972 25.224C28.37 27.2271 25.3022 29.2528 21.8644 30.4213C18.4267 31.5897 14.5242 31.8288 11.2444 30.2769C9.99468 29.6859 9.51195 28.6302 9.42623 27.2767C9.34954 26.0316 10.5947 25.0616 11.479 24.3668V24.3623Z" fill="#65382E"/>
<path d="M85.5071 75.8876C84.3296 71.8228 81.8438 68.2677 79.1143 65.033C78.5684 64.3878 77.7969 63.684 76.9939 63.9457C76.7097 64.0404 76.4796 64.2435 76.2766 64.4645C74.8509 66.0255 74.7472 68.367 74.9547 70.4693C75.5096 76.041 77.7157 81.3601 80.7204 86.0836C81.0497 86.6024 81.3971 87.1213 81.8753 87.5092C84.307 89.4763 85.3763 85.6776 85.8049 83.8594C86.4229 81.2428 86.256 78.4592 85.5116 75.8876H85.5071Z" fill="#65382E"/>
<path d="M29.0828 38.0589C28.8167 44.8126 29.3355 51.5663 29.8543 58.3065C30.2603 63.5578 30.6844 68.904 32.6605 73.7899C33.3913 75.599 34.3297 77.3269 35.011 79.1586C35.8501 81.4234 36.2877 83.8145 36.7208 86.192C38.2096 94.3894 39.6984 102.591 41.1872 110.789C41.3135 111.483 41.4489 112.201 41.8504 112.783C42.288 113.419 42.9963 113.816 43.6911 114.159C49.9034 117.2 57.2436 117.493 63.9432 115.787C72.0594 113.721 79.4086 108.759 84.3577 102C78.8446 86.4131 73.2639 70.474 73.1196 53.9393C73.1015 52.0986 73.3226 50.0504 72.6774 48.318C71.8924 46.2111 71.13 44.384 69.2758 42.9899C68.3644 42.3042 60.0137 37.0167 58.006 35.8031C55.2225 34.1203 52.29 32.3067 49.0868 31.6165C44.9047 30.7142 41.4353 31.4089 38.5525 34.6346C37.6366 35.6588 36.8381 36.3219 35.5162 36.8047C34.9749 37.0032 29.0828 38.2484 29.0919 38.0634L29.0828 38.0589Z" fill="#9DC180"/>
<path d="M38.5153 40.7118C38.9619 41.154 39.3725 41.6141 39.7109 42.0924C40.2748 42.8864 40.5816 44.0323 40.9741 44.9211C41.3801 45.8369 41.8583 46.7437 42.1967 47.6866C42.2779 47.8671 42.3636 48.0566 42.526 48.1693C42.6659 48.2686 42.8463 48.2911 43.0178 48.2911C43.7351 48.2866 44.3803 47.8716 44.9667 47.452C47.9714 45.3 50.6332 42.6653 52.8122 39.6787C53.6017 38.5959 54.3371 37.45 54.7973 36.1913C54.9326 35.8169 55.0454 35.4244 54.9913 35.0319C54.9146 34.477 54.5221 34.0213 54.1476 33.6017C50.164 29.1308 46.2931 24.5291 43.0223 19.5078C42.2328 22.3095 40.5229 24.8404 38.2221 26.627C37.0175 27.5608 35.664 28.2917 34.5001 29.2752C33.3361 30.2587 32.3481 31.5851 32.2398 33.1055C32.0548 35.6364 34.1753 37.3372 36.0114 38.6591C36.8325 39.2501 37.7303 39.9539 38.5108 40.7254L38.5153 40.7118Z" fill="#663C33"/>
<path d="M22.0301 25.0303C22.1564 25.3416 22.3053 25.6529 22.4406 25.9642C22.6256 26.4018 22.8151 26.8485 22.8512 27.3222C22.8963 27.9493 22.6707 28.5628 22.4632 29.1583C22.0707 30.2637 21.7188 31.3825 21.412 32.5149C21.3578 32.7089 21.3082 32.9254 21.3985 33.1104C21.5067 33.3315 21.7684 33.4127 22.0075 33.4668C22.6933 33.6157 23.4016 33.6834 24.1008 33.6653C24.2136 33.6653 24.3309 33.6608 24.4257 33.724C24.4933 33.7691 24.5339 33.8458 24.5745 33.918C25.725 36.0654 27.0243 38.1317 28.4635 40.0987C28.8695 40.6536 29.3071 41.2176 29.9207 41.5289C30.8726 42.0116 32.0366 41.7725 33.0156 41.3439C34.6171 40.6446 35.9751 39.4897 37.2203 38.2671C38.2038 37.3016 39.1783 36.1873 39.3542 34.8203C39.4535 34.0578 39.291 33.2864 39.0745 32.551C38.9752 32.2036 38.8624 31.8427 38.9346 31.4908C39.1016 30.6832 40.3693 30.7735 41.0009 30.5795C41.8445 30.3223 42.6431 29.9253 43.383 29.4426C44.8763 28.4591 46.126 27.1146 47.0643 25.5988C48.5216 23.2483 49.3472 20.4827 49.3472 17.7127C49.3472 15.0283 48.0749 12.1094 46.6177 9.88073C44.9845 7.37685 42.6341 5.89257 39.7828 5.05794C38.8534 4.78725 37.897 4.66093 36.936 4.59777C36.0879 4.53912 35.2487 4.46242 34.3961 4.51205C31.6801 4.68349 28.9056 5.2384 26.6318 6.73622C21.8 9.91682 20.8932 15.9893 21.3082 21.3309C21.3759 22.1881 21.6015 23.0137 21.7007 23.8619C21.7503 24.2724 21.8767 24.6604 22.0346 25.0394L22.0301 25.0303Z" fill="#965547"/>
<path d="M24.6208 19.7109C25.866 20.8659 27.1563 22.0569 27.7428 23.681C28.1217 24.7412 28.1714 25.9323 28.7669 26.8887C29.8767 28.6798 32.3625 28.9505 34.0634 30.1956C35.101 30.9536 35.895 32.1175 37.1267 32.492C38.2771 32.8439 39.5088 32.4153 40.7088 32.4379C41.6562 32.4514 42.5766 32.7492 43.524 32.7807C45.1797 32.8394 46.8084 32.0634 47.9588 30.8679C48.6626 30.137 49.1949 29.2527 49.5694 28.3098C49.9123 27.4436 50.0115 26.5729 50.4672 25.7699C51.1213 24.6194 51.3063 23.478 51.6492 22.2419C51.974 21.0779 52.556 20.2433 52.5244 18.9575C52.4928 17.7755 52.159 16.6251 51.7755 15.5062C51.4236 14.4821 50.8958 13.5121 50.5484 12.4971C50.2236 11.5451 50.3273 10.6654 49.5468 9.88941C49.4115 9.75406 49.2626 9.63225 49.1543 9.47886C49.019 9.29389 48.9468 9.07734 48.8611 8.8653C48.5137 7.98556 47.9723 7.18702 47.2866 6.53737C46.5332 5.82004 45.6038 5.28317 44.9812 4.45306C44.4398 3.73573 44.1015 2.78832 43.2894 2.40033C42.4593 2.00332 41.39 2.33717 40.6141 1.84992C40.2125 1.59728 39.9554 1.15967 39.5584 0.902511C39.2426 0.699494 38.8411 0.622798 38.4711 0.699494C38.2275 0.74912 37.9974 0.857396 37.7538 0.870931C37.5011 0.884465 37.2575 0.798747 37.0094 0.735586C35.8319 0.424293 34.5281 0.631821 33.5085 1.29501C33.3009 1.43036 33.0934 1.58826 32.8453 1.62886C32.6242 1.66044 32.4077 1.59728 32.1866 1.56119C31.2482 1.40329 30.2331 1.8409 29.7008 2.63493C29.5609 2.84697 29.4301 3.09961 29.1955 3.19435C29.015 3.26653 28.8075 3.23044 28.6135 3.2124C27.0029 3.03645 25.3427 4.15079 24.896 5.71176C24.8509 5.87418 24.8103 6.05013 24.684 6.16743C24.5667 6.2757 24.4043 6.31179 24.2509 6.34789C22.8478 6.71332 21.765 8.07128 21.729 9.52398C21.7244 9.70895 21.729 9.91197 21.6297 10.0699C21.5079 10.2594 21.2688 10.3315 21.0658 10.4308C20.1544 10.8819 19.8477 12.0955 20.1138 13.0745C20.4116 14.1708 21.2462 15.0054 21.6387 16.0611C22.0899 17.2792 23.0779 18.2537 23.9937 19.1335C24.2013 19.332 24.4133 19.526 24.6253 19.7245L24.6208 19.7109Z" fill="#262626"/>
<path d="M55.9211 22.7338C57.4324 23.2391 58.8445 24.1549 59.7198 25.4858C60.2972 26.3655 60.6221 27.3896 60.8206 28.4273C60.9288 29.0048 61.0055 29.5958 60.9288 30.1778C60.7664 31.4229 59.9092 32.5192 58.7994 33.1102C57.7076 33.6967 56.3407 33.814 55.2083 33.3087C54.8203 33.1373 54.4594 32.8846 54.2293 32.5328C53.9992 32.1718 53.9225 31.7252 53.9225 31.2966C53.9225 30.489 54.1481 29.695 54.1436 28.8875C54.1255 27.0378 52.8262 25.373 51.1885 24.5158C50.1509 23.9699 49.6681 22.4631 51.1344 22.1563C52.5871 21.8495 54.5451 22.2781 55.9211 22.7383V22.7338Z" fill="#663C33"/>
<path d="M69.7273 89.3686C69.9709 90.6138 70.2822 91.9537 71.2477 92.7748C71.7485 93.1989 72.3756 93.438 72.9891 93.6591C75.3261 94.4937 77.7217 95.1749 80.1489 95.6938C80.8572 95.8471 81.6377 95.978 82.2783 95.6396C83.0904 95.2155 83.3836 94.2095 83.5189 93.3027C84.2679 88.2859 82.5851 83.2736 81.367 78.3471C80.0902 73.1859 79.2962 67.8804 77.4555 62.8907C76.8825 61.3342 76.093 59.692 74.5907 58.9882C73.8012 58.6228 72.9034 58.5642 72.0372 58.6454C70.6116 58.7852 69.2446 59.2905 67.9633 59.9356C66.7497 60.5447 65.5587 61.3162 64.8233 62.4576C62.9871 65.3043 64.4398 68.9135 65.482 71.7603C66.8039 75.374 67.6881 79.1321 68.4596 82.8992C68.9017 85.0511 69.3032 87.2121 69.7273 89.3686Z" fill="#965547"/>
<path d="M58.1864 50.1046C57.4691 53.5559 57.9473 57.1741 59.0346 60.5262C60.1173 63.8782 61.7911 67.0092 63.5055 70.0905C63.8573 70.7266 64.2589 71.3989 64.9221 71.6921C65.31 71.8635 65.7432 71.8816 66.1627 71.8681C68.3147 71.7959 70.3674 70.9297 72.2171 69.8289C74.4052 68.5295 76.3903 66.8874 78.0731 64.979C78.3663 64.6451 78.6551 64.2978 78.7994 63.8782C78.9573 63.418 78.9257 62.9172 78.8851 62.43C78.3122 56.1229 75.7316 50.0144 71.6081 45.2096C70.7509 44.2081 69.8125 43.2516 68.6801 42.5794C67.1282 41.6546 64.7551 40.9372 63.1896 42.1012C61.5204 43.3419 60.2121 44.9209 59.3053 46.7932C58.8 47.8398 58.4255 48.9542 58.1864 50.0911V50.1046Z" fill="#ABD28A"/>
<path d="M7.30044 31.6351C7.3636 30.5704 7.50797 29.4967 7.89145 28.5041C8.60877 26.6454 10.26 25.1115 12.2225 24.7731C13.012 24.6378 13.8331 24.6919 14.5955 24.9265C16.1926 25.4228 17.4603 26.686 18.2859 28.1432C19.1115 29.5959 19.5401 31.2381 19.9101 32.8667C20.28 34.4954 20.6048 36.1511 21.241 37.694C21.1282 37.3331 20.7763 37.0895 20.4108 37.0038C20.0454 36.9181 19.6574 36.9722 19.292 37.0489C16.2512 37.6805 13.6616 40.1212 12.8406 43.1169C12.7233 43.55 12.6375 44.0011 12.4345 44.4026C12.2315 44.8042 11.8841 45.1651 11.442 45.2463C10.5623 45.4087 10.1878 44.2989 9.87199 43.6943C9.40731 42.8056 9.00578 41.8807 8.6584 40.9378C7.97265 39.052 7.53053 37.076 7.35007 35.0729C7.2463 33.9315 7.22826 32.781 7.30044 31.6351Z" fill="#65382E"/>
<path d="M18.2868 206.721C13.1031 207.957 8.51945 212.942 7.35097 218.086C6.89531 220.093 6.75545 222.164 6.79154 224.221C6.84117 226.928 7.64873 229.554 10.7932 229.743C12.1647 229.824 13.5317 229.319 14.6235 228.489C15.3905 227.903 16.0401 227.158 16.5093 226.319C16.9785 225.48 17.2717 224.56 17.6462 223.675C18.3635 221.988 19.3876 220.436 20.6554 219.11C21.5892 218.131 22.9607 217.174 23.5157 215.902C24.0841 214.603 24.4811 212.848 24.5217 211.422C24.5668 210.001 24.1337 208.494 23.069 207.551C21.8058 206.437 19.92 206.333 18.2823 206.726L18.2868 206.721Z" fill="#3E6E9F"/>
<path d="M26.866 124.116C26.6314 123.417 26.1803 122.812 25.7336 122.226C21.971 117.254 18.213 112.278 14.4504 107.306C13.2774 105.759 12.0142 105.452 10.3179 104.829C9.57797 104.554 7.60193 103.065 8.41852 102.046C1.60616 110.555 -0.978929 123.173 2.95961 133.473C6.08156 141.639 8.00346 149.976 7.82751 158.769C7.67412 166.614 5.54018 174.135 4.9582 181.908C4.11906 193.16 5.49507 204.664 7.60645 215.812C7.75081 216.584 7.91323 217.378 8.36438 218.014C9.46969 219.579 12.2939 218.925 13.7466 218.235C15.091 217.594 16.2324 216.606 17.3603 215.627C17.7032 215.33 18.0596 215.014 18.2491 214.599C18.425 214.215 18.4385 213.782 18.4476 213.358C18.7092 203.852 19.219 194.351 19.977 184.872C20.3244 180.559 21.4928 176.341 22.2011 172.042C22.9681 167.381 23.6403 162.703 24.2133 158.011C25.4855 147.635 26.0675 137.254 27.0059 126.873C27.0916 125.948 27.1638 124.991 26.866 124.112V124.116Z" fill="#444F42"/>
<path d="M9.39442 43.1297C9.21396 42.4665 9.02899 41.8033 8.93876 41.1266C8.68611 39.2002 9.23651 37.2151 10.2922 35.5865C12.1194 32.7713 15.494 31.0299 18.846 31.1788C18.9813 31.1833 19.1212 31.1923 19.252 31.2329C19.446 31.2916 19.613 31.4134 19.7754 31.5352C21.1378 32.5412 22.5003 33.5563 23.7545 34.6932C25.4418 36.2226 26.9261 37.9731 28.1622 39.886C27.3186 39.5792 26.4073 40.0619 25.6719 40.5672C22.0266 43.062 19.1257 46.6352 17.4294 50.7181C17.0098 51.7286 16.6579 52.7708 16.1075 53.7137C15.3135 55.0716 13.1344 56.0642 12.1239 54.3543C11.6366 53.5332 11.5735 52.4189 11.3885 51.5031C11.1223 50.1902 10.8381 48.8774 10.5313 47.5735C10.1794 46.0847 9.80496 44.605 9.40344 43.1297H9.39442Z" fill="#4F86BF"/>
<path d="M40.1979 223.703C38.082 223.834 35.9707 224.15 33.9179 224.682C32.8487 224.957 31.7975 225.291 30.7689 225.684C30.1508 225.923 28.8741 226.87 28.3553 226.094C26.5191 229.225 23.9205 233.132 25.116 236.922C25.7431 238.911 27.5883 240.585 29.6726 240.594C31.9735 240.603 33.8006 238.78 35.8489 237.734C38.8174 236.213 42.3364 236.335 45.6568 236.651C47.078 236.786 48.5126 236.953 49.9337 236.786C51.5128 236.601 53.0241 236.01 54.4407 235.284C55.7761 234.598 57.0574 233.782 58.1356 232.735C59.2635 231.643 60.1974 230.105 59.8545 228.571C59.6244 227.538 58.8304 226.694 57.9146 226.166C56.9942 225.638 55.9476 225.381 54.9144 225.147C50.0916 224.064 45.138 223.392 40.207 223.698L40.1979 223.703Z" fill="#3E6E9F"/>
<path d="M47.6007 110.505C44.2757 115.102 37.6619 116.564 32.2842 114.759C28.2599 113.41 24.7455 110.5 20.5272 110.009C19.7061 109.914 18.8444 109.918 18.0955 110.266C16.6338 110.938 16.1466 112.571 15.9796 114.046C15.7811 115.77 15.7315 117.15 15.3525 118.874C14.4954 122.767 14.7345 126.9 16.0654 130.658C16.8819 132.963 18.1136 135.124 19.661 137.019C20.7754 138.381 23.5499 139.924 23.6717 141.788C24.1725 149.561 23.7394 157.343 23.4417 165.117C23.3153 168.424 23.789 171.812 23.5138 175.042C23.2161 178.525 22.4221 181.954 21.8085 185.387C21.4295 187.525 21.1588 189.686 21.0912 191.861C20.9784 195.61 21.4746 199.35 22.0927 203.049C22.7469 206.961 23.5454 210.845 24.344 214.73C24.9711 217.779 25.5982 220.825 26.2207 223.874C26.4959 225.219 26.6178 226.744 27.0283 228.043C27.3802 229.157 29.0675 228.936 30.0149 228.832C31.9278 228.625 33.8903 228.399 35.5956 227.515C36.7596 226.911 37.7521 226.022 38.6995 225.115C39.4981 224.353 39.6966 223.974 39.4349 222.972C39.1552 221.889 38.4063 214.946 38.1807 212.623C37.7341 207.962 37.4634 203.279 37.513 198.596C37.5446 195.7 37.6935 192.799 38.0003 189.916C39.2635 178.042 44.0682 167.314 47.2714 155.927C49.3602 148.496 50.9618 140.89 51.2731 133.18C51.5844 125.47 50.5693 117.629 47.5917 110.514L47.6007 110.505Z" fill="#505A4E"/>
<path d="M19.1311 33.7638C17.9356 33.5067 16.6678 33.2585 15.5039 33.6465C13.5188 34.3187 12.5985 36.5609 12.0932 38.5956C9.68403 48.2367 11.2044 58.3515 11.3352 68.2903C11.5067 81.112 9.3186 93.9652 4.90636 106.006C2.87167 111.569 7.25685 117.831 11.6465 120.989C15.7881 123.967 20.8229 125.415 25.8352 126.349C33.8025 127.833 42.248 128.104 49.8138 125.198C51.7312 116.568 51.5011 107.631 51.862 98.797C52.1192 92.5711 52.6921 86.2866 54.4967 80.2954C56.3509 74.1417 60.1045 69.1159 63.7949 63.9186C64.6115 62.7682 65.4732 61.4509 65.2521 60.0568C65.1032 59.1139 64.4806 58.3244 63.8626 57.5935C59.5541 52.4865 54.5418 47.9795 49.0243 44.2169C44.1925 40.9235 38.1967 36.8632 32.2821 36.4933C27.9421 36.2226 23.3854 34.6751 19.1311 33.7683V33.7638Z" fill="#4F86BF"/>
<path d="M83.3511 92.9775C82.918 91.7413 81.3976 91.3398 80.0983 91.1684C78.3388 90.9293 76.5658 90.7714 74.7928 90.7804C73.3175 90.7894 71.4498 90.6766 70.164 91.4571C67.606 93.0091 65.7562 95.4408 63.8524 97.6965C60.8793 101.215 57.6175 104.482 54.1031 107.459C52.3661 108.93 50.6157 110.085 48.387 110.654C47.223 110.951 46.2801 110.41 45.1658 110.13C43.8484 109.801 42.5311 109.472 41.2092 109.138C40.916 109.065 40.6182 108.989 40.3159 108.993C39.7204 109.002 39.1745 109.309 38.597 109.476C37.8346 109.697 37.0225 109.666 36.2511 109.85C36.0706 109.896 35.8676 109.927 35.7322 110.058C35.624 110.166 35.5563 110.338 35.4435 110.455C35.1999 110.717 34.8886 110.92 34.5457 111.032C34.2074 111.145 33.8284 111.181 33.5622 111.411C33.2825 111.651 33.1878 112.084 33.3502 112.418C33.4765 112.688 33.7427 112.873 34.0269 112.963C34.3111 113.054 34.6134 113.058 34.9112 113.054C35.7954 113.027 36.6752 112.882 37.5143 112.616C37.9835 112.467 38.4662 112.282 38.9535 112.336C39.4452 112.395 39.937 112.801 39.8783 113.293C39.8377 113.658 39.5174 113.924 39.2061 114.118C38.3624 114.646 37.3789 114.948 36.3864 114.985C35.7638 115.007 35.1367 114.93 34.5232 115.025C34.1803 115.079 33.8464 115.188 33.5036 115.237C32.0779 115.44 30.5801 114.624 29.2222 115.097C28.9921 115.179 28.7304 115.4 28.8387 115.621C28.8928 115.729 29.0282 115.801 29.0327 115.927C29.0327 116.031 28.9424 116.103 28.8838 116.189C28.7439 116.401 28.8387 116.694 28.9695 116.911C29.1906 117.281 29.5109 117.592 29.8853 117.804C29.9711 117.854 30.0613 117.899 30.1245 117.971C30.2598 118.134 30.2237 118.377 30.2282 118.589C30.2463 119.113 30.941 119.338 31.32 119.546C31.726 119.771 32.1682 120.037 32.2855 120.525C32.3306 120.719 32.317 120.931 32.4028 121.107C32.5291 121.368 32.8314 121.486 33.102 121.585C35.9127 122.577 38.7414 123.579 41.6829 124.03C42.2017 124.111 42.7341 124.17 43.2484 124.08C43.8981 123.967 44.48 123.62 45.044 123.281C48.0531 121.477 51.0668 119.64 53.8279 117.488C58.8266 114.574 64.0058 111.962 68.8737 108.835C74.2108 105.411 79.2321 101.261 82.6022 95.8874C83.1526 95.0077 83.6759 93.9565 83.333 92.9775H83.3511Z" fill="#965547"/>
<path d="M1.88755 77.8503C1.84695 78.1706 1.87853 78.509 1.77477 78.8158C1.69807 79.0504 1.54468 79.2489 1.41836 79.4654C0.958186 80.2369 0.845399 81.2069 1.10707 82.0686C1.15669 82.231 1.21985 82.3979 1.21534 82.5694C1.21534 82.7092 1.1612 82.84 1.12511 82.9709C0.899537 83.7333 0.953675 84.577 1.27399 85.2988C1.42738 85.6462 1.64393 85.971 1.75221 86.3365C1.84244 86.6432 1.85597 86.9726 1.95523 87.2794C2.26652 88.2268 3.30416 88.705 4.25158 89.0163C6.24115 89.6704 8.38862 90.0675 10.4278 89.5892C10.8564 89.49 11.294 89.3366 11.5918 89.0118C11.885 88.6869 11.9798 88.1411 11.6865 87.8117C12.7377 87.92 13.7889 87.0718 13.9152 86.0252C13.9332 85.8582 13.9332 85.6868 14.0009 85.5334C14.0505 85.4206 14.1318 85.3214 14.1949 85.2176C14.5468 84.6401 14.3438 83.8551 13.8972 83.3453C13.4505 82.8355 12.8144 82.5468 12.1963 82.2671C12.4399 81.8881 12.6745 81.4821 12.7106 81.0309C12.7557 80.4941 12.5121 79.9662 12.1602 79.5647C11.8083 79.1587 11.3572 78.8564 10.9105 78.5586C11.2489 78.288 11.267 77.7511 11.0594 77.3721C10.8519 76.9931 10.4729 76.7405 10.094 76.533C8.89391 75.8878 7.54948 75.5811 6.20506 75.4367C5.52833 75.3645 4.85161 75.3419 4.17488 75.3284C3.59741 75.3149 3.18235 75.7886 2.78985 76.1946C2.34322 76.6548 1.97327 77.2097 1.88755 77.8594V77.8503Z" fill="#965547"/>
<path d="M36.3913 30.6559C35.0334 32.6139 33.301 34.3147 31.3249 35.6501C30.3956 36.2772 28.036 36.6833 28.5819 38.2082C28.6992 38.542 28.9248 38.8262 29.1504 39.0924C30.6798 40.9015 32.6919 42.3001 34.9161 43.1122C36.671 43.7528 38.5433 44.0235 40.4111 44.0957C41.7465 44.1453 43.312 44.0866 44.4308 43.2565C45.0308 42.8099 44.6699 42.5031 44.8233 41.8895C45.0128 41.1542 45.5767 40.4098 46.0324 39.8188C46.1632 39.6518 46.3031 39.4804 46.3527 39.2729C46.4069 39.0428 46.3347 38.7992 46.2625 38.5736C45.5406 36.3088 44.7466 34.0666 43.8353 31.8695C43.118 30.1416 42.2788 28.3866 40.8352 27.2001C39.8697 26.4106 38.4215 26.1489 37.7583 27.4573C37.5733 27.8272 37.5598 28.2874 37.438 28.6799C37.2124 29.3972 36.8199 30.0469 36.3958 30.6604L36.3913 30.6559Z" fill="#65382E"/>
<path d="M64.9255 32.5375C64.321 33.4849 63.554 34.3737 63.2743 35.4654C63.0127 36.4941 63.2157 37.5768 63.4277 38.619C63.5089 39.025 63.5946 39.4446 63.5044 39.8506C63.4142 40.2566 63.0984 40.6401 62.6878 40.6717C62.3675 40.6988 62.0743 40.5183 61.772 40.4145C61.0186 40.1619 60.1749 40.4145 59.5208 40.8567C58.8621 41.2988 58.3523 41.9214 57.8154 42.5034C56.3943 44.0598 54.7521 45.4178 52.961 46.5276C52.5956 46.7532 52.1941 46.9788 51.7655 46.9382C51.3189 46.8976 50.9489 46.5863 50.6196 46.2795C47.9082 43.7711 45.6028 40.8296 43.8253 37.5949C43.3425 36.7151 42.8824 35.7406 43.0267 34.7481C43.0944 34.2789 43.2974 33.8007 43.1756 33.3405C43.0673 32.9345 42.7335 32.6412 42.4357 32.3435C41.3124 31.2337 40.5093 29.8396 39.8191 28.4185C38.9258 26.5823 38.1859 24.6378 38.037 22.6032C37.7708 19.0391 39.4085 15.466 42.0342 13.0388C44.6599 10.6161 48.1879 9.28974 51.7475 8.98296C53.5611 8.82506 55.4153 8.92431 57.1658 9.4296C58.9929 9.95744 60.6667 10.9139 62.2051 12.0237C64.4518 13.6478 66.7978 16.0299 67.0189 18.9534C67.2354 21.8001 67.2535 24.8995 66.7392 27.7102C66.4279 29.411 65.8639 31.0712 64.93 32.533L64.9255 32.5375Z" fill="#65382E"/>
<path d="M62.7458 26.947C62.7142 26.965 62.6871 26.9876 62.6555 27.0056C61.2525 27.935 59.6644 28.905 58.0087 28.6117C56.1996 28.2914 55.9064 28.4628 54.3048 29.126C53.7995 29.3381 50.9121 29.8479 50.867 30.5697C50.9482 29.2072 50.7678 27.7951 50.1001 26.6041C49.4053 25.3589 47.0503 23.7799 45.5705 24.4792C43.3012 25.5484 45.8186 27.917 46.8653 28.7967C47.9751 29.7306 48.9271 30.8449 49.676 32.0856C50.1181 32.821 50.4971 33.624 50.5377 34.4812C50.5783 35.3384 50.2174 36.2587 49.4684 36.6783C49.1572 36.8542 48.8007 36.9399 48.5165 37.152C47.6142 37.8287 47.9661 39.2408 47.6819 40.3371C47.2984 41.8214 45.6247 42.6695 44.0953 42.6154C42.5659 42.5613 41.1538 41.8169 39.8229 41.0544C39.3853 42.5974 37.4408 43.3192 35.8979 42.8816C34.3008 42.4259 33.3263 41.0093 32.203 39.8995C30.8721 38.5821 29.8886 37.0212 29.5051 35.1714C29.0133 32.7984 29.5547 30.2268 30.9578 28.2553C31.2059 27.9034 31.4901 27.5606 31.5939 27.141C31.7969 26.3199 31.2646 25.5214 30.9533 24.7318C30.1638 22.7378 30.9172 20.2474 32.6767 19.0248C33.5384 18.4248 34.6437 18.0548 35.1309 17.13C35.4197 16.5841 35.4287 15.9434 35.5369 15.3344C36.0828 12.2891 39.5747 10.1462 42.5343 11.0304C43.0711 8.21977 46.5224 6.39713 49.1481 7.53854C50.4429 5.43618 53.795 5.02563 55.559 6.75805C57.5124 5.87379 60.0614 6.63624 61.2119 8.44535C61.5006 8.8965 61.7126 9.41081 62.1187 9.75819C62.5743 10.1462 63.1879 10.2635 63.7383 10.4981C65.3264 11.1838 66.3099 13.0516 65.976 14.7479C67.4738 15.2893 69.2649 16.2683 69.1205 17.8563C69.0574 18.515 68.6378 19.1466 68.7686 19.7963C68.8453 20.1797 69.107 20.5046 69.2243 20.879C69.6078 22.1152 68.3806 23.2115 67.3024 23.9243C65.782 24.9303 64.2571 25.9409 62.7368 26.947H62.7458Z" fill="#262626"/>
<path d="M68.9497 83.4359C70.5919 84.5457 72.2476 85.642 74.0342 86.5037C76.0779 87.4917 78.275 88.1594 80.5217 88.4797C81.2797 88.588 82.0917 88.6512 82.782 88.3173C83.5083 87.9699 83.982 87.2436 84.2708 86.4902C84.8663 84.9202 84.7716 83.1426 84.2708 81.541C83.77 79.935 82.8857 78.4777 81.9158 77.1017C79.6736 73.9121 76.9486 71.0924 74.2417 68.2863C72.8296 66.8246 71.413 65.3583 69.8836 64.0139C68.7693 63.0349 67.5647 62.1055 66.1661 61.6048C64.8037 61.1175 63.3194 61.0679 61.8757 61.1852C59.4485 61.3837 56.8815 62.1642 55.4378 64.1222C53.7821 66.3734 53.7099 69.6758 54.9551 72.0804C55.4468 73.0233 56.0514 74.07 56.7732 74.855C57.3823 75.5227 58.2394 76.0641 58.9748 76.601C60.7478 77.9048 62.6291 79.0507 64.4337 80.3139C65.9315 81.3606 67.4339 82.4027 68.9497 83.4269V83.4359Z" fill="#65382E"/>
<path d="M47.8997 55.6633C46.4515 62.2095 48.1343 69.3737 52.348 74.589C52.5059 74.783 52.6684 74.977 52.8939 75.0853C53.3225 75.2883 53.8323 75.1078 54.2654 74.9183C60.0221 72.4009 64.9532 68.0473 68.1563 62.6471C68.2646 62.4666 68.3684 62.2771 68.3684 62.0696C68.3684 61.8982 68.2872 61.7403 68.2105 61.5914C65.6389 56.4934 61.7816 52.0496 57.0941 48.7878C56.2415 48.1922 55.3482 47.6328 54.3466 47.3441C52.2623 46.7441 51.0081 47.3531 50.1735 49.1938C49.2306 51.2826 48.3915 53.4301 47.8907 55.6723L47.8997 55.6633Z" fill="#5D96D2"/>
</svg>
