<svg width="184" height="241" viewBox="0 0 184 241" fill="none" xmlns="http://www.w3.org/2000/svg">
<path d="M35.9287 138.908C34.257 137.443 31.3588 136.886 29.4546 137.664C27.5505 138.441 27.3621 140.259 29.0338 141.724C30.7055 143.189 33.6037 143.746 35.5078 142.968C37.4119 142.19 37.6004 140.373 35.9287 138.908Z" fill="#96853F"/>
<path d="M24.018 181.642C28.3406 168.281 32.6623 154.921 36.9841 141.56C36.7957 142.143 36.301 142.645 35.5095 142.968C33.6054 143.745 30.7072 143.189 29.0355 141.723C28.1529 140.95 27.7886 140.078 27.922 139.312C25.396 153.271 23.0946 166.98 20.6809 180.813C20.6314 181.095 20.7657 181.416 21.0907 181.701C21.7063 182.241 22.7734 182.446 23.4746 182.159C23.766 182.04 23.9481 181.855 24.0172 181.641L24.018 181.642Z" fill="#996323"/>
<path opacity="0.35" d="M24.0198 181.643L36.9859 141.562C36.7974 142.144 36.3027 142.647 35.5112 142.969C35.0904 143.141 34.6208 143.248 34.1269 143.294L22.9668 182.282C23.149 182.264 23.3217 182.225 23.4764 182.162C23.7677 182.043 23.9499 181.858 24.019 181.644L24.0198 181.643Z" fill="black"/>
<path d="M153.109 197.87C150.907 181.294 148.706 164.722 146.503 148.146C146.56 148.575 146.121 149.095 145.186 149.591C143.405 150.535 140.494 151.037 138.685 150.712C137.874 150.566 137.422 150.279 137.331 149.921C141.465 166.123 145.599 182.321 149.733 198.523C149.766 198.655 149.933 198.761 150.231 198.815C150.897 198.935 151.969 198.749 152.625 198.402C152.97 198.219 153.131 198.028 153.111 197.87H153.109Z" fill="#996323"/>
<path opacity="0.35" d="M153.111 197.87L146.505 148.146C146.558 148.54 146.191 149.012 145.403 149.471L152.705 198.358C152.995 198.189 153.13 198.015 153.11 197.87H153.111Z" fill="black"/>
<path d="M145.139 147.29C143.33 146.964 140.419 147.466 138.637 148.41C136.856 149.355 136.878 150.385 138.687 150.711C140.496 151.037 143.407 150.535 145.188 149.59C146.97 148.645 146.948 147.615 145.139 147.289V147.29Z" fill="#91813D"/>
<path d="M72.6298 106.086C73.3671 84.7536 74.1044 63.4235 74.8417 42.0903C74.8919 41.13 74.9658 39.8461 75.1212 38.8968C75.44 36.9495 75.5256 36.6001 76.025 34.8585C76.1993 34.2492 76.4804 33.4491 76.745 32.8735C77.1902 31.9054 77.8286 30.631 78.3877 29.7233C78.6971 29.2207 79.1697 28.5894 79.5372 28.1269C79.8474 27.7375 80.3099 27.2593 80.6412 26.8887C81.0228 26.4615 81.6141 25.9708 82.0593 25.6111C82.5022 25.2531 83.117 24.7985 83.6164 24.5252C84.444 24.0721 85.5919 23.5492 86.4682 23.1998C90.0959 21.9827 94.3305 22.4334 98.6468 24.9257L166.513 64.1082C177.946 70.7087 184.504 88.4826 180.292 101.453L162.448 156.423C161.009 160.855 158.248 163.781 154.873 164.914C154.411 165.057 153.787 165.223 153.314 165.32C152.945 165.396 152.446 165.449 152.071 165.488C151.367 165.561 150.244 165.527 149.677 165.452C149.28 165.399 148.072 165.238 147.258 164.961C146.881 164.833 146.369 164.688 146.004 164.529C145.31 164.227 144.402 163.784 143.733 163.43C143.557 163.328 143.392 163.185 143.239 163.007C143.392 163.186 143.557 163.328 143.733 163.43L137.813 160.012L131.892 156.594L125.972 153.176L120.051 149.758L114.131 146.34L108.211 142.922L102.29 139.504L96.3697 136.086L90.4492 132.668L84.5288 129.25C84.4086 129.18 84.2932 129.092 84.1833 128.987C84.2932 129.092 84.4079 129.18 84.5288 129.25C83.1617 128.456 82.2525 127.705 82.2438 127.698C81.6376 127.195 80.8564 126.491 80.2847 125.949C79.9879 125.667 79.6267 125.257 79.3527 124.953C78.7465 124.282 77.8993 123.161 77.6888 122.847C77.4635 122.511 77.1463 122.073 76.9382 121.726C76.5236 121.033 75.9826 120.102 75.6135 119.384C75.4282 119.022 75.1903 118.534 75.0341 118.159C74.8778 117.783 74.6603 117.286 74.5135 116.906C74.3659 116.525 74.19 116.01 74.0518 115.626C74.0047 115.495 73.5806 114.198 73.3105 112.994C73.2195 112.588 73.1064 112.046 73.0334 111.637C72.9611 111.23 72.8881 110.683 72.8253 110.274C72.7625 109.865 72.7271 109.312 72.6863 108.899C72.6447 108.475 72.6274 107.908 72.6188 107.483C72.6101 107.064 72.6258 106.507 72.6282 106.088L72.6298 106.086Z" fill="#9DC180"/>
<path d="M83.2998 114.752L142.506 148.934C143.413 149.461 144.338 149.084 144.669 148.055L162.514 93.0857C163.747 89.3669 161.804 84.0998 158.506 82.2239L90.6399 43.0413C87.3506 41.1137 84.1329 43.4018 84.0041 47.7581L81.7922 111.753C81.7482 112.949 82.3921 114.23 83.3013 114.752H83.2998Z" fill="#86AE66"/>
<path d="M87.7826 22.7599C88.1014 22.6664 88.5215 22.5204 88.8465 22.4489C89.4001 22.3264 90.1429 22.1678 90.7075 22.1144C91.188 22.0689 91.8311 22.0202 92.314 22.0241C92.8943 22.0289 93.6701 22.0665 94.2448 22.1443C95.1321 22.2644 96.2149 22.4403 97.8411 23.008C98.898 23.3771 100.232 24.0649 101.225 24.5823L108.012 28.5005L114.798 32.4187L121.585 36.3369L128.371 40.2551L135.158 44.1732L141.945 48.0914L148.731 52.0096L155.518 55.9278L162.304 59.8459L169.091 63.7641C169.653 64.0923 170.385 64.5603 170.916 64.9356C171.431 65.2984 172.107 65.8009 172.577 66.221C173.47 67.0196 174.606 68.1448 175.43 69.0132C175.863 69.4686 176.373 70.1361 176.764 70.6276C177.588 71.6664 178.708 73.4025 179.057 74.0401C179.354 74.5835 179.78 75.2917 180.045 75.8524C180.574 76.976 181.268 78.4828 181.7 79.6465C181.916 80.2307 182.18 81.0182 182.362 81.6142C182.544 82.2102 182.746 83.0158 182.91 83.6165C183.075 84.2203 183.214 85.0456 183.343 85.658C183.478 86.3027 183.77 88.3269 183.834 89.8031C183.862 90.4493 183.909 91.3123 183.88 91.9585C183.824 93.1771 183.696 94.8009 183.549 96.0125C183.469 96.6642 183.279 97.5217 183.129 98.1609C182.99 98.7482 182.748 99.5161 182.584 100.097C176.636 118.421 170.688 136.744 164.74 155.067C164.672 155.274 164.562 155.453 164.408 155.604C164.562 155.454 164.672 155.274 164.74 155.067C164.516 155.702 164.191 156.54 163.921 157.156C163.756 157.534 163.499 158.022 163.292 158.378C162.93 159.001 162.377 159.789 161.948 160.366C161.715 160.68 161.352 161.053 161.089 161.342C160.83 161.627 160.455 161.983 160.151 162.221C159.623 162.635 158.89 163.148 158.326 163.509C158.01 163.711 157.554 163.921 157.212 164.075C157.103 164.124 156.977 164.174 156.849 164.224C156.63 164.315 156.41 164.399 156.187 164.474L154.875 164.914C158.249 163.782 161.01 160.856 162.449 156.423L180.294 101.453C184.506 88.484 177.947 70.7093 166.514 64.1088L98.6483 24.9263C94.332 22.434 90.0966 21.9833 86.4697 23.2004L87.7818 22.7599H87.7826Z" fill="#86AE66"/>
<path d="M105.571 174.55C103.72 174.134 100.762 174.073 98.9626 174.413C97.1637 174.752 97.2061 175.364 99.0568 175.779C100.908 176.195 103.866 176.256 105.665 175.916C107.464 175.577 107.422 174.965 105.571 174.55Z" fill="#796B33"/>
<path d="M102.744 227.393C104.158 210.025 105.573 192.659 106.987 175.29C106.967 175.527 106.528 175.752 105.665 175.914C103.867 176.254 100.908 176.192 99.0571 175.778C98.122 175.568 97.6493 175.308 97.6406 175.059C98.195 192.475 98.7493 209.891 99.3037 227.308C99.3068 227.4 99.4812 227.495 99.8251 227.572C100.506 227.726 101.595 227.747 102.257 227.623C102.574 227.563 102.736 227.48 102.743 227.393L102.744 227.393Z" fill="#996323"/>
<path opacity="0.35" d="M102.746 227.397L106.989 175.294C106.971 175.522 106.558 175.742 105.75 175.902L102.29 227.621C102.588 227.561 102.739 227.481 102.746 227.397Z" fill="black"/>
<path d="M71.5887 112.79C71.5887 112.79 71.7803 112.691 71.7811 112.691C81.3339 107.954 88.6559 105.735 90.8317 106.99C90.4446 106.753 90.3944 106.713 90.0646 106.458C89.9617 106.379 89.6767 106.131 89.5063 105.966C89.1302 105.598 89.025 105.474 88.674 105.061C88.5593 104.926 88.2837 104.566 88.1487 104.368C87.9618 104.095 87.8487 103.929 87.665 103.621C87.5276 103.39 87.3454 103.081 87.2339 102.837C87.1782 102.715 87.0949 102.558 87.0415 102.436C86.8855 102.076 86.774 101.806 86.707 101.625C86.506 101.079 86.3883 100.605 86.3466 100.428C86.7094 101.991 80.9656 106.774 71.712 112.713C71.6711 112.739 71.6303 112.766 71.5879 112.79H71.5887Z" fill="#EB9C2E"/>
<path d="M45.9587 127.698C45.9587 127.698 46.1503 127.574 46.1511 127.574C46.1055 127.601 46.0592 127.626 46.0129 127.65C33.6946 134.161 23.1155 138.479 20.4238 137.889C21.2051 141.256 23.5435 144.593 26.1974 146.125C26.2069 142.894 34.4798 135.347 45.9595 127.699L45.9587 127.698Z" fill="#86AE66"/>
<path d="M0.173546 97.1495C0.237148 95.6066 0.56144 94.596 0.755386 93.9922C0.96111 93.3507 1.36706 92.5427 1.66386 91.9381C1.82954 91.6005 2.09809 91.1749 2.29517 90.8537C2.59748 90.3606 3.04583 89.7309 3.38975 89.2653C3.71953 88.82 4.17417 88.2359 4.54086 87.8197C5.2766 86.9866 6.28323 85.8983 7.05509 85.0982C7.51051 84.6263 8.14888 84.0287 8.62942 83.5827C10.7 81.6597 12.8326 79.9559 13.9194 79.111C14.5263 78.6391 15.3437 78.0211 15.9617 77.5641C16.582 77.1063 17.4222 76.5135 18.0488 76.0628C18.713 75.5854 19.6192 74.9777 20.2984 74.523C21.5822 73.6632 23.3293 72.5686 24.6406 71.7512C25.3645 71.3005 26.3499 70.7328 27.0825 70.297L34.3371 66.0813C38.2937 63.7838 41.5641 62.1411 44.1883 60.913C49.4962 58.4294 53.3532 57.1708 53.4325 57.1448C55.5345 56.4594 56.2419 56.2277 57.6545 55.8626C59.8162 55.3035 61.2045 55.0766 61.7015 55.0052C63.3803 54.7633 64.2958 54.7131 64.7693 54.7131C65.1446 54.7131 65.6456 54.6927 66.0193 54.7241C66.6985 54.7814 67.6015 54.8937 68.2729 55.0083C68.1276 54.9573 68.1221 54.9565 67.841 54.9117C68.4896 54.9816 69.0699 55.1088 69.5661 55.291C70.2406 55.5383 70.5885 55.7401 71.4294 56.2285C68.5893 54.589 56.9824 58.8699 43.0905 66.9434L35.8352 71.16C19.8068 80.4741 6.80147 91.3131 6.78969 95.3647C6.20707 95.0279 5.61345 94.7853 5.0269 94.6573C1.90492 93.9733 0.153128 96.7789 1.11343 100.922C0.75067 100.842 0.545735 100.677 0.4892 100.433C0.234793 99.3261 0.128788 98.2213 0.17276 97.1495H0.173546Z" fill="#86AE66"/>
<path d="M55.2395 121.92L62.4948 117.704C76.3874 109.63 87.9936 105.349 90.8337 106.99L96.1228 110.043L101.412 113.097L106.701 116.151L111.99 119.204L117.279 122.258L122.569 125.312L127.858 128.365L133.147 131.419L138.436 134.473L143.725 137.526C140.885 135.887 129.278 140.168 115.386 148.241L108.131 152.458C92.1025 161.772 79.0972 172.611 79.0854 176.663L26.1963 146.127C26.2081 142.075 39.2134 131.237 55.2418 121.922L55.2395 121.92Z" fill="#A9D08A"/>
<path d="M84.4563 172.405C84.5286 172.214 84.6307 171.962 84.7225 171.78C84.8505 171.527 85.0327 171.195 85.1874 170.958C85.4528 170.552 85.8218 170.021 86.1116 169.633C86.3463 169.317 86.6769 168.909 86.9344 168.612C87.5391 167.912 88.1099 167.251 89.3223 166.058C89.9496 165.44 90.855 164.571 92.3013 163.327C95.4673 160.602 98.645 158.379 98.9976 158.135C101.67 156.279 104.632 154.393 107.823 152.539C107.84 152.489 107.867 152.453 107.903 152.433C107.206 152.848 106.272 153.394 105.579 153.817C104.898 154.233 103.994 154.797 103.322 155.228C102.392 155.824 100.935 156.771 99.0282 158.114C98.9944 158.137 98.9607 158.161 98.9261 158.184C87.4071 165.85 79.0973 173.424 79.0879 176.662C81.7419 178.194 84.0912 177.565 84.889 175.109C84.2082 174.472 84.0865 173.549 84.4571 172.407L84.4563 172.405Z" fill="#7CA45C"/>
<path d="M47.5537 87.8746L54.809 83.658C69.1115 75.3458 78.8238 67.961 78.355 65.9414C81.0208 77.4368 83.6873 88.9314 86.3531 100.427C86.8211 102.446 77.1097 109.83 62.8071 118.143L55.5518 122.359C39.5234 131.673 23.7942 138.628 20.4249 137.889L12.4268 103.404C15.7969 104.142 31.5261 97.1887 47.5537 87.8746Z" fill="#9DC180"/>
<path d="M35.8325 71.1616L43.0878 66.9451C56.9804 58.8716 68.5873 54.5907 71.4267 56.231C73.0591 57.1748 74.5298 58.5552 75.7963 60.3329C76.609 61.4738 77.1374 62.5636 77.3259 62.9798C77.6486 63.6888 77.7468 63.9621 78.0074 64.719C78.115 65.0315 78.1645 65.2247 78.3474 65.9424C78.8162 67.9611 69.104 75.3468 54.8015 83.659L47.5462 87.8755C31.5178 97.1897 15.7885 104.143 12.4192 103.405C11.6379 100.037 9.30743 96.8214 6.78613 95.3656C6.79791 91.3139 19.8033 80.4757 35.8317 71.1608L35.8325 71.1616Z" fill="#9DC180"/>
<path d="M88.5194 196.529C88.5091 196.523 88.4996 196.516 88.4893 196.509C88.4996 196.516 88.5083 196.523 88.5194 196.529Z" fill="#DE9329"/>
<path d="M0.49395 100.434C0.550485 100.677 0.75542 100.843 1.11818 100.923L11.7106 146.594C12.4731 149.878 14.7564 153.136 17.346 154.631C17.346 154.833 17.3774 155.015 17.4403 155.177C17.3774 155.015 17.3453 154.833 17.346 154.631L87.8646 195.345C89.2348 196.136 90.5194 196.33 91.5433 195.988L92.323 197.867C91.9343 197.804 91.5582 197.727 91.2057 197.63C90.7801 197.513 90.2186 197.326 89.8103 197.158C89.4146 196.996 88.9066 196.73 88.5289 196.529C88.5187 196.522 88.5093 196.515 88.4991 196.509C88.5093 196.515 88.5179 196.522 88.5289 196.529L81.477 192.457L74.425 188.386L67.3731 184.315L60.3212 180.243L53.2692 176.172L46.2173 172.101L39.1653 168.03L32.1134 163.958L25.0615 159.887L18.0095 155.816C17.3955 155.461 16.9534 155.128 16.9487 155.125C16.3127 154.643 16.1227 154.489 15.5573 153.956C15.2857 153.7 14.8475 153.232 14.7227 153.086C14.2767 152.563 14.0725 152.324 13.6006 151.661C13.4553 151.457 12.6992 150.372 12.0875 149.021C11.7593 148.296 11.6525 147.985 11.4185 147.303C11.3133 146.997 11.2654 146.808 11.0856 146.105C7.55452 130.881 4.02424 115.658 0.493164 100.434H0.49395Z" fill="#86AE66"/>
<path d="M5.0292 94.6582C5.61575 94.787 6.20858 95.0296 6.79199 95.3657C9.31329 96.8215 11.6438 100.037 12.4251 103.405C15.0908 114.9 17.7574 126.395 20.4232 137.89C21.2044 141.257 23.5428 144.593 26.1968 146.126C43.8262 156.305 61.4565 166.483 79.0859 176.662C80.862 177.687 82.4992 177.74 83.6291 176.93L91.5416 195.991C90.5177 196.332 89.2331 196.138 87.8629 195.347C64.357 181.775 40.8503 168.205 17.3444 154.633C14.7548 153.138 12.4722 149.88 11.709 146.596C8.17788 131.372 4.64759 116.149 1.11652 100.925C0.156213 96.7814 1.90801 93.9759 5.02998 94.6598L5.0292 94.6582Z" fill="#86AE66"/>
<path d="M27.5349 138.11L79.225 168.149C84.4945 171.211 93.0674 171.211 98.3715 168.149L142.911 142.434C145.58 140.892 146.914 138.87 146.908 136.85C146.907 137.139 146.9 137.526 146.863 137.814C146.8 138.289 146.709 138.925 146.574 139.385C146.324 140.237 146.071 140.97 145.366 142.11C145.112 142.521 144.713 143.031 144.403 143.401C144.16 143.691 143.8 144.045 143.524 144.304C143.282 144.531 142.945 144.818 142.678 145.014C142.272 145.311 141.71 145.677 141.282 145.942L136.828 148.514L132.375 151.085L127.921 153.657L123.467 156.228L119.014 158.8L114.56 161.371L110.106 163.943L105.653 166.514L101.199 169.086L96.7453 171.657C95.8651 172.158 95.2102 172.426 95.0312 172.497C93.9492 172.92 93.6335 173 92.6968 173.239C92.5193 173.284 90.9002 173.682 88.8139 173.68C88.3491 173.68 87.7288 173.642 87.2647 173.611C87.0284 173.595 86.7143 173.55 86.4787 173.522C86.1301 173.482 85.2436 173.318 84.8981 173.229C84.6437 173.164 84.3014 173.085 84.0509 173.004C83.5868 172.854 82.9728 172.639 82.5189 172.461C82.241 172.352 81.8821 172.178 81.6144 172.045C81.3882 171.933 81.0954 171.765 80.8732 171.644L75.7041 168.64L70.5351 165.636L65.3661 162.632L60.1971 159.627L55.0281 156.623L49.8591 153.619L44.6901 150.615L39.5211 147.611L34.3521 144.606L29.183 141.603C28.452 141.17 28.2227 140.995 27.6095 140.529C27.3056 140.298 26.9405 139.942 26.6602 139.683C26.2903 139.341 25.5727 138.49 25.2366 137.946C24.9861 137.542 24.6658 136.992 24.4702 136.559C24.2732 136.122 24.0706 135.514 23.9308 135.057C23.8539 134.805 23.7769 134.461 23.7424 134.201C23.6976 133.866 23.6583 133.453 23.6309 133.069C23.8256 134.904 25.1251 136.705 27.5373 138.107L27.5349 138.11Z" fill="#86AE66"/>
<path d="M23.5928 130.936C23.5944 130.647 23.6006 130.262 23.6383 129.975C23.7012 129.5 23.7922 128.864 23.9265 128.404C24.1746 127.558 24.4259 126.822 25.1341 125.678C25.3886 125.267 25.7867 124.757 26.0976 124.387C26.3402 124.097 26.7006 123.742 26.9762 123.484C27.2181 123.257 27.5549 122.97 27.8227 122.774C28.2287 122.477 28.7916 122.111 29.2196 121.845L33.6733 119.274L38.127 116.702L42.5806 114.13L47.0343 111.559L51.488 108.987L55.9417 106.416L60.3954 103.844L64.8491 101.273L69.3028 98.7012L73.7565 96.1296C74.6367 95.6287 75.29 95.3609 75.4698 95.2902C76.5518 94.8678 76.8674 94.7869 77.8042 94.5482C77.9817 94.5027 79.6007 94.1054 81.687 94.1069C82.1527 94.1069 82.7722 94.1446 83.2362 94.176C83.4734 94.1918 83.7867 94.2373 84.0222 94.2648C84.3709 94.3048 85.2574 94.4689 85.6029 94.5576C85.8573 94.6228 86.1996 94.7021 86.4501 94.783C86.9142 94.933 87.5282 95.1481 87.982 95.3272C88.26 95.4363 88.6188 95.6098 88.8866 95.7425C89.1127 95.8548 89.4048 96.0229 89.627 96.143L94.7961 99.1464L99.9651 102.151L105.134 105.155L110.303 108.159L115.472 111.163L120.641 114.167L125.81 117.172L130.979 120.176L136.148 123.18L141.317 126.184C142.047 126.617 142.277 126.791 142.889 127.258C143.193 127.488 143.558 127.844 143.838 128.103C144.208 128.446 144.926 129.298 145.263 129.84C145.513 130.244 145.834 130.794 146.029 131.228C146.226 131.664 146.429 132.272 146.569 132.73C146.646 132.981 146.723 133.325 146.758 133.586C146.821 134.064 146.876 134.705 146.898 135.187L146.902 136.852C146.908 138.872 145.575 140.895 142.906 142.436L98.3656 168.151C93.0615 171.213 84.4887 171.213 79.2191 168.151L27.529 138.112C24.9104 136.591 23.5999 134.598 23.5936 132.604L23.5889 130.939L23.5928 130.936Z" fill="#86AE66"/>
<path d="M136.535 126.723L84.8444 96.6839C83.106 95.6686 80.2368 95.6686 78.489 96.6831L33.949 122.399C32.1925 123.408 32.1838 125.07 33.9301 126.08L85.6202 156.119C87.3579 157.133 90.2247 157.133 91.9733 156.119L136.513 130.403C138.271 129.393 138.28 127.733 136.534 126.723H136.535Z" fill="#A9D08A"/>
<path d="M142.871 140.067C142.894 140.303 142.906 140.537 142.906 140.767C142.906 140.537 142.893 140.304 142.871 140.067Z" fill="#FFAC31"/>
<g opacity="0.1">
<path d="M70.3345 118.037C70.3345 118.037 55.966 126.001 49.7598 138.579L70.3345 118.037Z" fill="black"/>
<path d="M67.7525 123.799C67.7525 123.799 55.0863 134.26 51.2891 147.762L67.7525 123.799Z" fill="black"/>
</g>
<path d="M131.471 98.1738C131.258 96.5614 130.897 94.972 130.392 93.4285C130.26 93.0325 130.025 92.562 129.606 92.562C128.579 92.562 127.379 93.8933 126.45 94.2375C125.796 94.4785 125.09 94.5876 124.413 94.7482C122.181 95.2761 119.84 95.3565 117.579 94.9605C113.901 94.3179 110.452 92.4186 107.945 89.6528C107.881 94.9892 106.103 100.159 103.985 105.06C102.901 107.573 101.707 110.069 101.134 112.748C100.56 115.428 100.663 118.36 102.057 120.719C102.964 122.256 104.358 123.444 105.827 124.454C106.493 124.913 107.245 125.286 107.744 125.935C108.214 126.548 108.341 127.392 108.352 128.149C108.363 129.188 108.231 130.295 108.713 131.219C109.132 132.023 109.964 132.556 110.842 132.78C111.72 133.01 112.644 132.964 113.551 132.86C118.468 132.287 123.311 129.94 126.289 125.906C127.465 124.311 128.24 122.463 128.837 120.587C129.445 118.682 129.984 116.811 130.38 114.849C130.667 113.426 130.868 111.985 130.954 110.534C131.006 109.679 131.241 108.91 131.333 108.061C131.442 107.016 131.545 105.966 131.608 104.916C131.74 102.856 131.757 100.779 131.528 98.719C131.505 98.5353 131.488 98.3517 131.459 98.1681L131.471 98.1738Z" fill="#444F42"/>
<path d="M87.5821 42.1409C86.3427 39.9203 83.2843 40.7465 81.4539 41.7163C79.0726 42.9729 77.0126 45.2107 75.0789 47.0584C72.9558 49.0839 70.8844 51.1668 68.5949 53.0088C65.3529 55.6196 61.715 57.7254 58.5763 60.4567C55.4375 63.1881 52.7407 66.7571 52.2529 70.8943C53.8481 71.1697 55.4834 70.877 57.0557 70.4926C67.7342 67.899 76.9724 61.2888 85.3328 54.1564C85.8664 53.7031 86.4058 53.2383 86.7673 52.6415C87.1058 52.0849 87.278 51.448 87.4272 50.8111C87.8231 49.1011 88.0584 47.3568 88.1387 45.6067C88.1903 44.4189 88.1559 43.1737 87.5821 42.1409Z" fill="#EEC8AE"/>
<path d="M83.3938 40.6151C80.1174 41.8488 77.3574 43.7882 74.9417 46.3417C74.5228 46.7835 74.1154 47.2311 73.7137 47.6844C73.3752 48.0688 72.9506 48.4361 72.8014 48.9525C72.6465 49.4861 72.8703 50.1804 73.0194 50.6969C73.3867 51.9994 74.0523 53.1986 74.781 54.329C75.3204 55.1668 75.9057 55.9873 76.6287 56.6759C77.5009 57.5079 78.5509 58.1276 79.6526 58.6096C81.4544 59.4015 83.4111 59.8376 85.3792 59.8892C85.821 59.9007 86.3776 59.9696 86.5153 60.3942C86.6588 60.8475 86.7219 61.3123 86.9744 61.7254C87.3015 62.2533 87.7662 62.7812 88.3859 62.8328C88.9598 62.8787 89.4704 62.4943 89.918 62.1271C91.0484 61.186 92.1386 60.1876 93.1772 59.1433C94.0781 58.2367 94.9445 57.2841 95.5987 56.1882C96.884 54.0364 97.2799 51.4199 96.9529 48.9353C96.7979 47.7819 96.4192 46.6917 96.3389 45.5384C96.293 44.9072 96.1036 44.1325 96.2069 43.5071C96.293 42.9734 96.5455 42.5431 96.534 41.9635C96.534 41.8717 96.5282 41.7799 96.4823 41.6996C96.425 41.5848 96.2987 41.5217 96.1897 41.4643C95.2716 40.9823 94.3191 40.2307 94.3019 39.1921C94.3019 39.106 94.3019 39.0084 94.256 38.9339C94.1814 38.8191 94.015 38.8076 93.8773 38.8076C90.5262 38.8593 87.1637 39.3068 83.9963 40.3971C83.7955 40.4659 83.6004 40.5348 83.4053 40.6094L83.3938 40.6151Z" fill="#4F86BF"/>
<path d="M95 41.3852C93.5598 40.7139 90.8342 38.74 89.7268 40.8229C89.503 41.2475 89.4226 41.7353 89.348 42.2115C88.7341 46.1765 88.2349 50.1645 87.5119 54.1122C86.8979 57.4346 85.4519 60.338 83.8969 63.3333C81.791 67.3786 81.6132 71.2977 84.1895 75.1709C85.5437 77.2136 87.2422 79.0556 88.2291 81.2934C89.2103 83.514 89.4169 85.9871 89.1472 88.3742C89.0038 89.6308 88.6078 90.8071 88.3841 92.0465C88.1603 93.263 88.9808 94.2557 89.7095 95.2139C94.1221 100.998 100.072 105.468 106.459 108.962C112.754 112.405 119.765 115.004 126.932 114.672C127.908 114.626 128.935 114.505 129.715 113.926C130.943 113.019 131.19 111.321 131.339 109.8C131.574 107.419 131.546 105.095 131.695 102.708C131.993 97.9739 132.292 93.24 132.59 88.5061C132.986 82.2057 133.376 75.825 132.142 69.6337C130.564 61.7381 126.399 54.5598 121.412 48.2307C120.19 46.6757 118.882 45.1379 117.218 44.0764C115.083 42.7107 113.368 44.0305 111.13 44.283C109.46 44.4723 107.698 44.5928 106.017 44.4666C102.322 44.1912 98.3396 42.9403 95.0115 41.3795L95 41.3852Z" fill="#4F86BF"/>
<path d="M75.4856 61.3477C69.5524 62.1969 66.7006 67.5333 68.1409 73.1566C68.772 75.6182 69.4032 78.0856 70.0344 80.5472C71.1648 84.954 72.2952 89.3608 73.7068 93.6816C75.8643 100.298 78.6817 106.696 82.1015 112.755C84.764 117.477 91.1504 128.999 98.2025 125.889C99.0919 125.499 99.8379 124.833 100.44 124.076C102.299 121.735 102.816 118.608 102.902 115.624C103.091 108.985 102.833 102.564 100.67 96.2006C98.3976 89.5272 94.6507 83.4736 91.3685 77.2306C89.7618 74.178 88.2585 71.0622 86.2674 68.2448C83.6221 64.5036 80.5121 60.6304 75.497 61.3477H75.4856Z" fill="#444F42"/>
<path d="M55.4139 134.754C56.5271 134.594 57.6689 134.645 58.7764 134.433C60.4863 134.1 62.0815 133.084 62.9996 131.604C63.8488 130.227 64.0783 128.54 63.9751 126.922C63.8546 125.034 63.2808 123.135 62.1045 121.654C61.347 120.707 60.3314 119.956 59.1895 119.548C57.9157 119.095 56.9402 119.089 55.8098 119.812C53.0383 121.585 50.2669 123.358 47.4954 125.132C46.0781 126.038 44.6665 126.945 43.2492 127.846C41.2983 129.091 39.3474 130.342 37.5399 131.788C36.4324 132.677 35.3651 133.653 34.6077 134.858C33.133 137.199 33.024 140.142 33.3511 142.816C33.4142 143.321 33.5003 143.838 33.7355 144.291C34.2003 145.186 35.2045 145.714 36.2086 145.84C37.2128 145.961 38.2284 145.737 39.1924 145.438C41.7573 144.652 44.1616 143.361 46.2445 141.68C47.7421 140.475 48.9012 138.926 50.1865 137.508C51.6038 135.948 53.308 135.07 55.4196 134.76L55.4139 134.754Z" fill="#EEC8AE"/>
<path d="M63.9876 74.6816C62.2145 80.2762 61.1989 86.1347 59.8332 91.867C58.3011 98.2994 56.3158 104.617 54.5427 110.986C53.6591 114.159 52.959 117.384 52.0926 120.563C50.6007 126.037 58.2954 128.309 62.3178 127.248C61.8186 127.38 62.9547 123.633 63.19 123.3C64.1597 121.911 65.0261 120.46 65.8754 118.974C70.1043 111.571 74.1554 104.026 77.0818 96.0214C80.0082 88.0168 81.7927 79.4958 81.3624 70.9805C81.2706 69.1903 81.0525 67.4975 80.1746 65.9081C79.4631 64.6285 78.4417 63.5842 77.1392 62.9013C75.5497 62.0693 73.5931 61.7709 71.9348 62.5858C69.1748 63.9457 67.4935 66.0802 66.2254 68.846C65.3532 70.7453 64.6245 72.7019 63.9933 74.6873L63.9876 74.6816Z" fill="#444F42"/>
<path d="M80.8049 86.6637C81.1894 89.068 81.6944 91.455 82.1993 93.8248C83.1346 98.2201 84.0814 102.638 85.7052 106.827C87.3578 111.079 89.6932 115.033 92.0171 118.957C93.8074 121.981 95.6665 125.298 98.2257 127.742C100.687 130.095 104.526 131.793 107.808 132.539C111.343 133.343 115.222 133.021 118.315 131.139C120.334 129.906 121.551 127.725 122.148 125.482C123.462 120.535 122.096 115.165 120.96 110.316C119.766 105.232 118.108 100.24 115.836 95.5347C112.169 87.9318 106.838 81.0347 99.9299 76.1803C97.1813 74.2523 94.1689 72.6399 90.9211 71.8136C89.1653 71.3661 87.3004 71.148 85.5388 71.6013C83.8059 72.0432 82.2854 73.3686 81.1435 74.7056C79.9787 76.0655 80.1336 77.9074 80.1508 79.6174C80.1738 81.9872 80.4262 84.3398 80.7992 86.6752L80.8049 86.6637Z" fill="#505A4E"/>
<path d="M38.7575 143.574C37.9484 144.957 37.4951 146.484 37.7476 148.211C37.937 149.467 38.8436 150.334 39.9625 150.902C41.7126 151.786 43.7783 151.791 45.7178 151.533C51.2091 150.799 56.402 148.044 60.0916 143.913C61.2966 142.565 62.4786 140.671 64.3033 140.241C66.1854 139.799 67.465 138.06 68.2339 136.39C68.6929 135.398 69.0372 134.336 69.1175 133.246C69.1749 132.414 69.152 130.767 68.3429 130.262C67.9814 130.038 67.5453 130.17 67.2068 129.866C66.8281 129.528 66.7076 128.919 66.4034 128.524C64.7681 126.406 62.1917 125.041 59.5178 124.874C57.8939 124.771 56.5455 125.408 55.4897 126.596C54.2044 128.047 52.8215 129.413 51.4157 130.744C48.604 133.412 45.6661 135.954 42.9406 138.709C41.4946 140.172 39.8248 141.744 38.7632 143.563L38.7575 143.574Z" fill="#F9D2B8"/>
<path d="M82.4231 72.9945C81.6484 73.4765 80.9312 74.0445 80.2943 74.6757C77.3506 77.5964 75.7784 81.6474 73.7644 85.1419C70.7404 90.375 67.8714 95.7057 65.4557 101.254C61.9784 109.242 58.9831 117.436 55.9994 125.618C55.7411 126.318 55.4829 127.047 55.5403 127.793C55.5919 128.499 55.9248 129.153 56.3092 129.755C58.4897 133.192 62.5006 135.379 66.5688 135.35C67.0623 135.35 67.573 135.31 68.0148 135.097C68.778 134.736 69.2256 133.938 69.6272 133.192C77.4252 118.732 87.3062 105.443 94.5533 90.7021C95.8501 88.0569 97.0895 85.2739 97.124 82.3303C97.1584 79.203 95.0697 75.3069 92.7516 73.2183C89.7276 70.4984 85.6134 70.9976 82.4173 72.9887L82.4231 72.9945Z" fill="#505A4E"/>
<path d="M99.3681 49.2338C99.655 49.9625 99.9017 50.7085 100.131 51.4544C100.412 52.3725 100.676 53.5431 101.629 54.0078C101.95 54.1628 102.312 54.2144 102.667 54.2431C103.844 54.3406 105.026 54.2029 106.185 54.0021C110.741 53.2217 115.125 51.4429 118.935 48.8264C119.296 48.5739 119.664 48.3157 119.939 47.9657C120.249 47.5755 120.547 46.9443 120.14 46.5369C119.727 46.1238 119.342 45.6762 118.906 45.2516C117.776 44.1499 116.754 42.9621 115.871 41.6538C115.01 40.3857 114.281 39.0258 113.696 37.6085C113.398 36.8798 113.134 36.1395 112.916 35.3821C112.766 34.8657 112.262 33.7296 112.399 33.2017C112.032 34.6075 111.143 35.8297 110.104 36.8453C107.023 39.8578 102.65 41.2521 98.3525 41.5333C97.6008 41.585 95.4662 41.6997 95.9654 42.8875C96.5393 44.2589 97.4631 45.4467 98.2033 46.7377C98.6623 47.5411 99.0468 48.3788 99.3796 49.2395L99.3681 49.2338Z" fill="#E8B592"/>
<path d="M90.6604 23.8027C90.385 24.342 90.1268 24.8986 89.9661 25.4495C89.7079 26.3618 89.9317 27.3373 89.9145 28.2669C89.9145 28.4849 89.8915 28.7087 89.7882 28.9038C89.6735 29.1161 89.4669 29.2653 89.2661 29.403C88.1299 30.2063 87.0397 31.0843 86.0183 32.031C85.8864 32.1515 85.7544 32.2778 85.6913 32.4442C85.5478 32.8057 85.7946 33.2131 86.1044 33.4483C86.4143 33.6836 86.793 33.8213 87.0856 34.0738C87.7455 34.6418 87.8258 35.6116 87.866 36.478C87.9119 37.5855 87.9578 38.6987 88.0094 39.8061C88.0439 40.5979 88.084 41.407 88.4169 42.1243C89.0021 43.3637 90.3506 44.0408 91.6416 44.4883C94.3615 45.4294 97.2477 45.7622 100.105 46.0548C101.075 46.1524 102.085 46.2442 103.009 45.9343C103.933 45.6245 104.759 44.7982 104.753 43.8227C108.351 44.2014 111.863 42.3997 114.582 40.0127C116.51 38.3199 118.174 36.2944 119.224 33.9533C121.916 27.9455 119.798 20.5148 114.014 17.2441C110.967 15.5227 107.37 14.9661 103.881 15.1382C100.507 15.2989 97.0354 16.1825 94.482 18.3917C93.0417 19.6368 91.9744 21.2435 91.108 22.9305C90.9645 23.2117 90.8039 23.5043 90.6547 23.8027H90.6604Z" fill="#F9D2B8"/>
<path d="M100.422 14.5361C99.722 14.7369 99.0449 15.0008 98.385 15.3164C97.6161 15.6894 96.7324 16.0853 96.0553 16.6132C94.9364 17.4854 94.0413 18.7822 94.3741 20.2569C94.6438 21.4619 95.5504 22.3628 96.084 23.4415C96.3824 24.0383 96.5144 24.6235 96.5775 25.2146C96.6406 25.8285 96.6234 26.4597 96.6177 27.1253C96.6062 28.5312 96.5603 29.9599 96.6062 31.3658C96.6751 33.4142 97.0997 35.5603 98.4366 37.121C99.3088 38.1367 100.497 38.8252 101.702 39.4048C102.224 37.844 103.928 36.8456 105.569 36.9202C107.21 37.0005 108.725 38.0334 109.597 39.4277C110.733 41.2409 111.083 43.7829 113.688 43.7198C115.387 43.6796 116.993 42.8246 118.193 41.6254C120.62 39.1982 121.905 35.5775 122.261 32.2379C122.634 28.7377 122.1 25.0883 120.31 22.0242C118.411 18.765 115.203 16.3493 111.634 15.1385C111.307 15.0238 110.974 14.9205 110.641 14.8172C107.405 13.8532 103.733 13.5721 100.439 14.5361H100.422Z" fill="#480808"/>
<path d="M120.888 51.0127C121.749 52.562 123.149 53.7325 124.612 54.731C126.075 55.7294 127.636 56.5901 129.007 57.709C129.943 55.7122 130.172 53.4284 129.862 51.248C129.552 49.0675 128.72 46.9846 127.624 45.0738C126.867 43.7483 125.955 42.4745 124.727 41.5621C123.499 40.6555 121.909 40.1448 120.417 40.4719C120.286 40.5006 120.142 40.5408 120.045 40.6326C119.913 40.7531 119.872 40.9424 119.844 41.1146C119.603 42.6007 119.775 44.2992 119.769 45.814C119.769 47.5986 120.004 49.4347 120.882 51.0184L120.888 51.0127Z" fill="#480808"/>
<path d="M117.504 36.822C116.489 37.7229 115.846 39.1 115.829 40.6148C115.812 41.86 116.156 43.1625 116.988 44.1151C117.751 44.9872 118.864 45.5668 120.018 45.5897C121.177 45.6069 122.347 45.0217 122.944 44.0347C123.105 43.7708 123.231 43.4667 123.489 43.2945C123.644 43.1912 123.833 43.1453 124.005 43.0765C124.78 42.7666 125.302 41.9748 125.423 41.1485C125.543 40.3222 125.314 39.473 124.935 38.7328C124.258 37.413 123.064 36.3457 121.641 35.9326C120.029 35.4678 118.56 35.8924 117.504 36.8335V36.822Z" fill="#B23642"/>
<path d="M103.191 82.6474C103.099 82.0449 102.617 81.517 102.02 81.3735C102.249 81.0178 102.118 80.5185 101.819 80.2202C101.521 79.9218 101.102 79.7783 100.694 79.6693C98.2156 79.0094 95.6048 79.1816 93.0399 79.084C91.9956 79.0439 90.8537 78.9119 90.1307 78.1545C89.8897 77.902 89.7118 77.5175 89.8782 77.2134C90.0963 76.8118 90.6816 76.8749 91.1177 77.0011C92.0931 77.2708 93.0743 77.5577 93.9752 78.0168C94.3425 78.2061 94.7097 78.4299 95.1228 78.4758C95.536 78.5217 96.0122 78.3266 96.1212 77.9307C96.2188 77.5921 96.0294 77.2479 95.8516 76.9437C95.3868 76.1691 94.8818 75.3658 94.1072 74.8895C93.5104 74.5223 92.8047 74.3846 92.1104 74.2583C90.9627 74.0403 89.8094 73.828 88.6446 73.7534C88.2372 73.7304 87.824 73.719 87.4338 73.8337C87.1297 73.9198 86.8486 74.0747 86.5674 74.2182C85.7928 74.6256 85.0009 74.9928 84.1976 75.3199C83.0213 75.7961 81.7761 76.3183 80.4908 76.324C76.2963 75.4002 72.4059 73.1279 69.5885 69.8859C67.7351 67.7514 66.1514 65.0947 63.4832 64.1536C61.8134 63.5626 59.9486 63.7692 58.2788 64.3659C57.0451 64.8078 55.9262 65.2266 54.9048 66.0644C53.9867 66.8218 53.126 67.7629 52.6842 68.8818C52.2079 70.0753 52.2137 71.6131 52.5694 72.8353C53.0055 74.3215 54.09 75.5723 55.1458 76.6568C55.9147 77.4487 56.7984 78.2864 57.682 78.9348C57.7222 78.9635 57.7624 78.9922 57.8025 79.0209C60.0519 80.6448 63.0529 81.8153 65.6924 82.5728C68.3089 83.3245 71.0058 83.7605 73.6969 84.1966C75.4585 84.4835 77.2259 84.7647 78.9989 84.9024C79.808 85.2352 80.5711 85.7459 81.2482 86.314C82.4188 87.3009 83.5033 88.4428 84.9034 89.0568C85.81 89.4527 86.8084 89.6076 87.7953 89.7109C91.4562 90.0896 95.1802 89.8371 98.755 88.9592C99.3288 88.8158 99.9084 88.6551 100.396 88.3223C100.884 87.9895 101.268 87.4559 101.28 86.8648C102.307 86.5263 102.892 85.2237 102.462 84.2253C102.984 83.9097 103.288 83.2613 103.191 82.6588V82.6474Z" fill="#EEC8AE"/>
<path d="M118.028 66.2648C115.854 66.391 113.518 67.1312 112.026 68.7207C110.299 70.5683 108.618 72.4906 107.356 74.694C106.013 77.0351 104.894 79.4508 103.396 81.7231C100.321 86.3996 96.6657 90.6917 92.5286 94.4616C92.0236 94.9206 91.4957 95.3969 91.249 96.0338C90.985 96.6994 91.0711 97.4454 91.1686 98.1569C91.5474 100.842 92.1326 103.499 92.8327 106.116C93.0679 107.005 93.3319 107.906 93.8598 108.652C94.3934 109.398 95.2599 109.972 96.178 109.914C96.8837 109.868 97.5092 109.467 98.0945 109.071C108.027 102.351 116.611 93.6353 123.175 83.5994C124.541 81.5108 125.844 79.3246 126.452 76.9031C127.06 74.4817 126.905 71.7676 125.528 69.6847C123.939 67.2919 120.903 66.0926 118.034 66.2648H118.028Z" fill="#F9D2B8"/>
<path d="M111.058 67.6242C110.031 68.7891 109.107 70.0514 108.315 71.3884C108.269 71.4687 108.218 71.5491 108.172 71.6294C107.747 72.3639 107.363 73.1156 107.018 73.8902C106.68 74.6533 106.41 75.4452 106.094 76.2198C106.003 76.4494 105.945 76.6674 105.934 76.9141C105.922 77.356 106.376 76.719 106.433 76.6445C106.823 76.151 107.374 75.8641 107.959 75.6747C108.671 75.4452 109.417 75.3362 110.157 75.3075C111.064 75.2731 111.976 75.3534 112.871 75.5083C114.914 75.8641 116.905 76.5297 118.77 77.4363C119.923 77.9929 121.059 78.6642 121.886 79.6455C122.712 80.6267 123.188 81.9751 122.861 83.2203C122.781 83.5301 122.654 83.8457 122.723 84.1556C122.918 85.0048 124.319 84.5744 124.743 84.2187C126.597 82.6809 127.727 80.4832 128.461 78.2282C129.299 75.6403 129.873 72.645 129.879 69.9137C129.879 67.3545 129.213 64.7093 127.526 62.7871C126.883 62.0526 126.086 61.4271 125.156 61.0943C122.356 60.0787 119.326 61.1747 116.916 62.6666C114.736 64.0207 112.751 65.6905 111.052 67.6185L111.058 67.6242Z" fill="#5D96D2"/>
<path d="M98.0583 103.153C97.6336 100.732 96.6008 98.4137 95.04 96.5087C94.6097 95.9865 94.1392 95.4873 93.5424 95.166C92.8653 94.793 92.0792 94.6783 91.3103 94.5692C89.0897 94.2479 86.8691 93.9208 84.6542 93.5765C80.6892 92.9626 76.7357 92.3027 72.7821 91.6027C71.1009 91.3043 69.4139 91.0002 67.7327 90.6846C66.5908 90.4723 65.8161 90.4665 65.7588 89.1353C65.7071 87.8442 65.2251 86.5704 64.4046 85.5662C64.2267 85.3482 64.0373 85.1416 63.8939 84.9064C63.6758 84.5449 63.5898 84.1202 63.4808 83.7128C63.1479 82.4619 62.6028 81.2627 61.8741 80.1897C61.7421 79.9946 61.5987 79.7995 61.4036 79.6733C61.2085 79.5413 60.9445 79.4896 60.738 79.5987C60.474 79.7306 60.3822 80.0577 60.3363 80.3503C60.1642 81.5324 60.3765 82.7661 60.0666 83.9194C60.0437 84.0112 60.0035 84.1145 59.9174 84.1604C59.7109 84.2752 59.533 83.9711 59.4871 83.7415C59.424 83.4087 59.4469 82.898 59.0682 82.7775C58.7411 82.6743 58.2591 83.0243 58.0296 83.2136C57.5361 83.6038 57.1 84.0686 56.8189 84.6309C56.6123 85.0441 56.4975 85.4974 56.3828 85.9449C56.2738 86.381 56.159 86.8171 56.05 87.2532C55.8778 87.936 55.7 88.6361 55.7286 89.3419C55.7516 89.9157 55.9123 90.4837 55.9065 91.0633C55.9065 91.5281 55.7918 91.9871 55.7688 92.4519C55.5795 96.2275 60.715 98.9703 63.5209 100.485C67.0097 102.367 70.6132 104.014 74.2453 105.598C80.5515 108.346 87.2248 110.951 94.0818 110.423C95.6598 110.303 96.9565 110.028 97.7828 108.524C98.6722 106.906 98.3509 104.881 98.0468 103.153H98.0583Z" fill="#F9D2B8"/>
<path d="M93.5182 193.829C96.8812 196.977 112.606 191.976 128.633 182.662L135.889 178.445C148.673 171.015 157.792 163.084 159.255 158.58C159.13 158.948 158.956 159.436 158.791 159.787C158.517 160.369 158.118 161.13 157.791 161.683C157.485 162.202 157.019 162.859 156.667 163.349C156.401 163.718 156.015 164.189 155.734 164.547C155.725 164.559 154.785 165.743 153.122 167.43C152.104 168.463 151.737 168.794 149.977 170.387C149.964 170.4 148.501 171.711 146.237 173.483C144.973 174.473 143.559 175.522 142.147 176.519C140.694 177.544 139.179 178.562 137.641 179.546C136.229 180.45 134.31 181.598 132.87 182.456L125.615 186.672C124.62 187.246 123.285 187.996 122.278 188.547C121.526 188.959 120.517 189.495 119.752 189.882C116.857 191.348 115.572 191.969 112.619 193.25C110.877 194.006 108.593 194.882 107.907 195.12C106.703 195.539 105.089 196.076 103.872 196.454C103.23 196.652 102.361 196.87 101.712 197.043C101.046 197.219 99.1638 197.641 97.829 197.814C96.8907 197.935 95.6053 198.101 94.0026 198.039C93.4114 198.016 92.85 197.957 92.3168 197.869L91.5371 195.99C92.4479 195.687 93.1531 194.959 93.519 193.831L93.5182 193.829Z" fill="#86AE66"/>
<path d="M104.333 160.518C107.696 163.667 123.42 158.667 139.448 149.352L146.704 145.136C159.487 137.707 168.607 129.775 170.07 125.27C166.464 136.374 162.859 147.476 159.253 158.581C157.791 163.085 148.672 171.016 135.888 178.446L128.633 182.662C112.604 191.976 96.8806 196.977 93.5176 193.829L104.334 160.519L104.333 160.518Z" fill="#A9D08A"/>
<path d="M92.6145 147.252C92.3695 148.007 92.0429 149.013 91.7979 149.767C91.6754 150.145 91.5121 150.647 91.3896 151.025C91.1446 151.78 90.8179 152.786 90.573 153.54C90.328 154.295 90.0013 155.301 89.7564 156.055C89.6339 156.432 89.4705 156.935 89.348 157.313C89.103 158.068 88.7764 159.074 88.5314 159.828C88.2864 160.583 87.9598 161.589 87.7148 162.343C87.5923 162.72 87.429 163.223 87.3065 163.601C87.0615 164.356 86.7349 165.361 86.4899 166.116C86.2449 166.871 85.9183 167.876 85.6733 168.631C85.5508 169.009 85.3875 169.511 85.265 169.889C85.02 170.644 84.6933 171.649 84.4484 172.404C84.077 173.547 84.1994 174.47 84.8802 175.107L93.0471 149.955C92.3664 149.317 92.2439 148.395 92.6153 147.251L92.6145 147.252Z" fill="#7CA45C"/>
<path d="M84.8825 175.107C87.6048 166.723 90.3271 158.339 93.0494 149.954C93.8472 147.498 96.1879 146.98 98.7092 148.436C99.2918 148.773 99.8847 149.215 100.47 149.763C103.586 152.68 105.316 157.496 104.334 160.518C100.728 171.621 97.1231 182.725 93.5174 193.829C93.1515 194.956 92.4464 195.684 91.5356 195.988L83.623 176.927C84.1813 176.527 84.6179 175.919 84.8817 175.107H84.8825Z" fill="#86AE66"/>
<path d="M92.6201 147.25C92.865 146.533 93.4375 144.856 95.2552 142.415C95.6038 141.947 96.2516 141.077 97.5441 139.666C98.9771 138.102 100.395 136.802 100.409 136.789C100.913 136.332 101.575 135.709 102.093 135.268C103.143 134.376 104.561 133.208 105.635 132.346C106.236 131.863 107.062 131.248 107.681 130.788C108.294 130.334 109.122 129.745 109.74 129.299C109.757 129.286 111.65 127.934 114.252 126.269C115.656 125.371 117.564 124.229 118.996 123.376L126.251 119.16C127.013 118.718 128.034 118.138 128.805 117.712C132.064 115.914 135.336 114.293 138.531 112.892C141.612 111.542 144.605 110.417 147.427 109.549C149.32 108.968 150.773 108.632 151.472 108.483C151.969 108.377 152.633 108.241 153.134 108.16C153.783 108.057 154.652 107.948 155.304 107.873C155.704 107.827 156.243 107.798 156.646 107.79C157.133 107.78 157.784 107.797 158.27 107.817C158.843 107.84 159.599 107.971 160.163 108.074C160.432 108.124 161.196 108.334 161.5 108.451C161.691 108.525 161.952 108.612 162.139 108.698C162.507 108.866 162.985 109.118 163.348 109.299C163.348 109.299 163.869 109.589 164.21 109.808C164.5 109.994 164.707 110.156 164.817 110.244C165.015 110.399 165.219 110.588 165.317 110.68C165.449 110.803 165.57 110.935 165.697 111.063C165.862 111.221 166.076 111.439 166.239 111.6C166.402 111.761 166.606 111.99 166.754 112.165C167.154 112.641 167.825 113.437 168.52 114.644C168.734 115.016 169.304 116.005 169.781 117.349C170.225 118.596 170.386 119.456 170.495 120.2C170.632 121.138 170.629 122.107 170.592 122.538C170.567 122.826 170.545 123.21 170.49 123.493C170.388 124.031 170.216 124.742 170.069 125.269C168.607 129.772 159.487 137.705 146.703 145.135L139.447 149.352C123.419 158.666 107.695 163.665 104.332 160.517C105.314 157.495 103.584 152.679 100.469 149.762C99.884 149.214 99.2912 148.772 98.7078 148.435C96.1865 146.979 93.845 147.498 93.048 149.954C92.3672 149.316 92.2447 148.393 92.6169 147.249L92.6201 147.25Z" fill="#9DC180"/>
<path opacity="0.15" d="M124.22 113.872C129.548 112.051 137.293 114.796 141.792 112.24C142.541 111.622 143.5 112.731 143.858 118.506C144.384 126.965 151.356 130.187 151.208 136.641C150.657 160.509 151.858 144.943 150.565 170.064C143.225 176.402 136.25 179.296 122.878 186.628C122.659 184.65 124.905 188.852 124.905 155.001C124.905 147.699 123.766 138.497 120.006 128.12C119.922 127.888 119.446 127.111 119.383 126.966C117.436 122.466 111.296 128.248 108.939 129.798C111.349 120.85 115.539 116.84 124.22 113.872Z" fill="black"/>
<path d="M127.312 113.151C135.295 108.543 139.7 113.116 144.199 110.559C144.948 109.942 145.907 111.05 146.265 116.826C146.791 125.285 153.763 128.506 153.615 134.96C153.064 158.828 153.631 161.348 152.337 186.469C144.998 192.807 137.651 200.324 124.587 200.58C124.368 198.602 127.311 187.171 127.311 153.32C127.311 146.018 126.172 136.815 122.412 126.439C122.328 126.206 121.852 125.429 121.789 125.285C119.842 120.785 113.702 126.566 111.346 128.117C112.536 123.519 119.329 117.674 127.311 113.15L127.312 113.151Z" fill="#B23642"/>
</svg>
