<svg width="194" height="241" viewBox="0 0 194 241" fill="none" xmlns="http://www.w3.org/2000/svg">
<g clip-path="url(#clip0_868_37411)">
<path d="M79.8755 15.4898C79.7464 14.5274 79.2652 13.9171 78.8622 13.0956C78.4436 12.2389 78.0642 11.476 77.3444 10.8227C77.1996 10.6897 77.0392 10.5606 76.8436 10.5176C76.472 10.4354 76.1082 10.6975 75.8734 10.9948C75.1536 11.9103 74.8133 10.9714 74.6216 10.275C74.3164 9.17574 74.1443 8.04124 74.1013 6.90284C74.0426 5.22457 74.246 3.43676 73.4284 1.96974C73.135 1.44162 72.5404 0.936963 71.9849 1.1756C71.4685 1.39858 71.3863 2.08711 71.4372 2.64653C71.5467 3.86318 71.9144 5.04853 71.9809 6.273C72.0944 8.3855 71.2846 10.5254 71.7501 12.587C71.9888 13.6394 72.5404 14.59 72.9511 15.5915C73.3502 16.5656 73.6005 17.6179 73.6592 18.6664C72.7399 20.5363 69.7432 27.4059 68.8904 28.8181C68.0572 30.1913 67.0713 31.4627 66.2107 32.8162C65.3539 34.1659 64.6302 35.5977 64.0434 37.0882C63.75 37.8315 63.4918 38.5904 63.2727 39.3572C62.2165 43.0306 60.7181 46.3832 57.5064 48.6953C55.7538 49.9588 53.6804 50.706 51.8143 51.7936C49.9483 52.8851 48.1879 54.4812 47.7497 56.6015C47.691 56.8871 47.6597 57.1844 47.7497 57.4622C47.8553 57.7673 48.0979 57.9981 48.3287 58.2211C50.8363 60.6505 52.7102 63.7293 53.7156 67.0741C54.1772 66.9215 54.4432 66.4481 54.6858 66.0256C56.7161 62.5087 60.2956 60.2202 63.081 57.2666C64.1138 56.1712 65.0371 54.978 65.8703 53.7262C67.3295 51.5315 68.511 49.1608 69.5516 46.7431C70.5726 44.3724 72.3408 42.4399 73.5223 40.1435C74.6959 37.8667 75.58 35.4451 76.2646 32.9766C76.9179 30.6059 77.3913 28.1922 77.7825 25.7628C77.9742 24.5657 78.1463 23.3687 78.3145 22.1677C78.381 21.6747 78.4436 21.2405 78.6471 20.7789C79.2026 19.5388 79.7542 18.3299 79.8989 16.949C79.9459 16.4874 79.9459 15.9827 79.8794 15.478L79.8755 15.4898Z" fill="#ECECEC"/>
<path d="M78.2447 8.33834C78.2447 8.33834 78.6281 8.15056 78.6868 8.15056C79.0389 8.15447 79.3479 8.56915 79.4027 8.8782C79.4418 9.08554 79.4222 9.29679 79.4027 9.50804C79.5748 9.47283 79.7548 9.45719 79.9269 9.50413C80.3064 9.60584 80.4746 10.0323 80.5293 10.3843C80.6624 11.198 80.4511 12.0235 80.2164 12.8137C80.056 13.3575 79.8839 13.8974 79.6765 14.4216C79.6178 14.5702 79.5279 14.7385 79.3714 14.7502C79.2814 14.758 79.1875 14.7072 79.1054 14.7385C79.0545 14.7541 79.0154 14.7971 78.9763 14.8323C78.7142 15.0671 78.2447 15.0045 78.053 14.7072C78.0022 14.6289 77.967 14.5389 77.92 14.4568C77.8652 14.3629 77.787 14.2807 77.7205 14.1947C77.4545 13.8426 77.3528 13.3966 77.298 12.9624C77.2432 12.5281 77.2237 12.0822 77.0946 11.6636C77.1533 11.8553 76.496 12.356 76.3474 12.4382C76.0266 12.6181 75.6393 12.6494 75.2755 12.6612C75.1268 12.6651 74.9703 12.6651 74.8295 12.6103C74.673 12.5477 74.5557 12.4147 74.4657 12.2739C74.1253 11.7496 74.0979 11.065 74.2857 10.4704C74.4735 9.87577 74.8491 9.35547 75.2637 8.88994C75.7293 8.36572 76.277 7.88454 76.942 7.66547C77.1806 7.58723 77.4427 7.54811 77.6736 7.64591C77.9552 7.76718 78.1117 8.0645 78.2447 8.33834Z" fill="#F2F2F2"/>
<path d="M49.1381 55.2506C49.3259 54.8399 49.4628 54.4213 49.5058 54.0183C49.5684 53.4511 49.4354 52.9699 49.3611 52.4261C49.275 51.808 49.4002 51.1117 49.4198 50.4857C51.4462 50.4114 53.4492 51.3073 54.8927 52.7352C56.2698 54.0966 56.8839 55.7279 57.5412 57.4922C58.2688 59.4561 58.5818 61.463 58.2101 63.5442C58.1671 63.7906 58.1123 64.041 58.0145 64.2718C57.9011 64.5456 57.725 64.7921 57.5607 65.0425C56.6962 66.3374 56.0037 67.7457 55.4991 69.2205C55.2057 70.0773 55.1118 72.6553 53.7934 72.1194C51.4227 71.1531 50.1552 68.5164 47.7024 67.6283C46.7439 67.2841 45.5938 67.1706 44.9952 66.3452C44.7136 65.9579 44.6119 65.4806 44.4632 65.0229C44.1933 64.1818 43.6456 63.1686 43.8686 62.2571C44.029 61.6038 44.7097 61.1461 45.1204 60.6492C46.118 59.4443 47.1703 58.2433 48.0857 56.9758C48.4457 56.4751 48.8447 55.8726 49.1303 55.2467L49.1381 55.2506Z" fill="#898484"/>
<path d="M56.2295 174.734C56.6481 174.625 56.8906 174.812 57.1254 175.11C57.3718 175.419 57.6887 175.716 57.9665 176.006C58.299 176.354 58.6628 176.675 59.0384 176.972C59.7895 177.563 60.6071 178.059 61.4325 178.533C62.9465 179.397 64.5191 180.192 65.8336 181.338C67.148 182.484 68.1965 184.057 68.2825 185.797C68.306 186.243 68.263 186.697 68.0869 187.104C67.6644 188.078 66.5378 188.602 65.4776 188.583C64.4174 188.559 63.4199 188.09 62.5123 187.534C61.1822 186.721 59.9812 185.711 58.7684 184.726C58.1777 184.244 57.5674 183.763 56.8633 183.478C55.7209 183.016 54.4378 183.11 53.2055 183.157C51.9732 183.204 50.6627 183.172 49.6181 182.511C48.9805 182.108 48.4915 181.479 48.2528 180.763C47.7638 179.292 48.3506 177.684 49.0861 176.319C49.3952 175.744 49.7551 175.161 50.3067 174.809C50.6666 175.626 51.4725 176.229 52.3566 176.346C53.4246 176.491 54.4769 175.966 55.318 175.294C55.5997 175.071 55.8774 174.82 56.2256 174.73L56.2295 174.734Z" fill="#9A9A9A"/>
<path d="M65.343 148.1C65.3743 146.137 65.1239 144.141 64.8657 142.189C63.8017 134.201 62.7024 126.079 59.3537 118.752C58.4304 116.734 57.1942 114.629 56.7287 112.442C56.4353 111.069 56.4744 109.661 56.3414 108.268C56.2749 107.564 56.1732 106.844 55.9423 106.175C55.7154 105.514 55.6529 104.806 55.4612 104.125C55.1521 103.034 54.6709 101.68 53.5756 101.144C51.9208 100.334 49.7026 101.664 48.7168 102.924C47.9148 103.949 47.4102 105.166 46.9094 106.367C44.6952 111.707 42.4849 117.047 40.2707 122.386C40.1807 122.602 40.0907 122.817 40.0516 123.048C39.9695 123.529 40.1103 124.014 40.2589 124.479C43.1226 133.36 49.2449 140.906 52.1594 149.771C52.531 150.901 52.6367 151.895 52.4059 153.076C52.0812 154.743 51.1736 156.23 50.6102 157.83C48.6464 163.416 51.021 169.699 49.7026 175.473C49.64 175.747 49.5696 176.032 49.6322 176.306C49.7261 176.713 50.0899 176.995 50.4342 177.226C51.467 177.914 52.6015 178.489 53.8259 178.704C55.0504 178.923 56.3688 178.763 57.4094 178.082C57.605 177.957 57.7928 177.805 57.8827 177.589C57.9649 177.39 57.9492 177.163 57.9336 176.948C57.5932 172.007 58.9507 167.101 60.6955 162.469C61.2432 161.014 61.83 159.578 62.4168 158.143C63.3166 155.944 64.5332 153.679 65.0692 151.359C65.3156 150.291 65.3939 149.192 65.3352 148.096L65.343 148.1Z" fill="#6C6C6C"/>
<path d="M35.1143 183.164C35.9984 183.579 36.8278 183.579 37.7432 183.384C38.5765 183.204 39.355 183.955 39.9965 184.389C40.7633 184.909 41.4949 185.476 42.199 186.079C43.5721 187.256 44.8357 188.555 46.0641 189.881C47.3316 191.251 48.5678 192.655 49.5615 194.232C49.9253 194.811 50.2657 195.429 50.3713 196.106C50.6803 198.046 48.8456 198.719 47.2377 198.738C43.5995 198.777 39.9731 197.342 37.3442 194.826C37.0273 194.525 36.7222 194.2 36.5226 193.813C36.3349 193.449 36.2488 193.046 36.0806 192.675C35.4586 191.317 33.8468 190.672 33.0644 189.396C32.4776 188.434 32.4385 187.202 32.771 186.122C33.0996 185.042 33.7607 184.092 34.4962 183.235C34.5471 183.176 34.6018 183.114 34.6761 183.082C34.817 183.024 34.9735 183.098 35.1143 183.164Z" fill="#9A9A9A"/>
<path d="M46.3091 123.38C46.5712 122.828 47.0876 122.453 47.5453 122.054C48.9576 120.818 49.7009 119.64 50.3307 117.856C51.031 115.877 51.4417 113.791 51.5278 111.695C51.6217 109.48 51.3322 107.168 50.1469 105.298C49.9982 105.064 49.8222 104.825 49.5679 104.708C49.3175 104.594 49.028 104.614 48.7542 104.637C46.4656 104.849 44.1966 105.271 41.9042 105.451C39.9912 105.6 38.0665 105.584 36.1574 105.396C34.8468 105.267 32.9025 105.095 31.8854 104.137C31.6272 103.894 29.9842 101.007 29.9255 101.073C25.3445 106.151 23.1615 113.111 23.1029 119.953C23.0442 126.795 24.9728 133.532 27.7856 139.767C29.7299 144.079 32.1045 148.217 33.5676 152.732C34.1153 154.426 34.706 156.092 34.2131 157.872C33.9549 158.804 33.6145 159.711 33.1842 160.576C32.66 161.628 32.0145 162.626 31.6155 163.729C31.0013 165.423 30.9974 167.269 31.1108 169.065C31.4746 174.745 32.9534 180.343 32.8439 186.031C34.9642 187.608 37.9686 187.33 40.4098 186.317C40.5741 186.247 40.7462 186.172 40.8675 186.043C41.1374 185.754 41.0983 185.308 41.0513 184.916C40.132 177.378 41.8455 169.789 44.4196 162.735C44.67 162.051 44.9164 161.362 45.1473 160.666C45.4915 159.645 45.8045 158.612 46.0549 157.567C46.5556 155.502 46.6808 153.366 46.7395 151.245C46.7942 149.27 46.626 147.357 46.5439 145.385C46.4813 143.903 46.3913 142.42 46.2974 140.941C46.2896 140.792 46.2778 140.644 46.27 140.495C45.9218 135.194 45.515 129.862 46.0392 124.557C46.0783 124.158 46.1253 123.748 46.3013 123.384L46.3091 123.38Z" fill="#737373"/>
<path d="M33.6602 35.1599C32.5413 35.5941 31.5086 36.2631 30.644 37.0963C28.8601 38.8137 27.7608 41.1571 27.217 43.5747C26.7984 45.4329 26.6889 47.3577 26.8884 49.2511C27.2992 53.1201 29.0009 56.86 28.7193 60.7408C28.5315 63.354 27.4557 65.8147 26.3955 68.2128C31.1878 66.9375 36.0622 65.4 39.9077 62.2704C40.5532 61.7462 41.1752 61.1672 41.5938 60.4474C42.3567 59.1407 42.3449 57.5681 42.1884 56.1089C42.1532 55.7842 41.9928 55.3187 42.0515 55.0018C42.1063 54.7045 42.388 54.3641 42.5131 54.0786C42.83 53.3509 43.0374 52.5802 43.2173 51.8096C43.8432 49.1494 44.1601 46.3679 43.6868 43.6764C43.4794 42.4911 43.1273 41.3409 42.8574 40.1712C42.5249 38.7159 42.2158 37.5462 41.097 36.4626C40.0994 35.4963 38.7811 34.8508 37.404 34.6709C36.1365 34.5027 34.8494 34.6983 33.6524 35.1638L33.6602 35.1599Z" fill="#787878"/>
<path d="M49.0155 57.2791C49.9387 60.127 50.8698 62.9946 52.2742 65.6391C53.5652 68.0724 55.2435 70.2788 56.6088 72.6691C57.9741 75.0593 59.046 77.7273 58.9521 80.4814C58.9013 81.9406 58.5257 83.3685 58.1932 84.7925C56.4171 92.378 55.7912 100.229 56.3467 107.999C56.3936 108.668 56.4406 109.38 56.112 109.967C55.8929 110.354 55.5291 110.639 55.1652 110.902C50.2321 114.458 43.9377 115.631 37.8583 115.627C33.1052 115.627 28 114.794 24.5965 111.477C25.8171 108.617 27.0415 105.753 28.2621 102.894C28.6846 101.904 29.1149 100.879 29.1071 99.803C29.0993 98.7898 28.7041 97.8275 28.3129 96.8964C25.1559 89.3422 21.9989 81.788 18.8458 74.2339C18.5328 73.4867 18.2199 72.6534 18.4937 71.8906C18.6776 71.3859 19.0962 71.0064 19.503 70.6504C21.6585 68.7805 24.0097 67.2665 26.4195 65.7487C28.8998 64.1877 31.3996 62.6581 33.9111 61.152C35.1669 60.4009 36.4304 59.6576 37.6979 58.9182C38.14 58.66 38.7581 58.4136 39.2784 58.5427C39.9043 58.6991 40.3621 59.2625 40.9489 59.5089C41.8486 59.8884 42.3259 59.6459 43.1905 59.2938C43.6677 59.0982 48.9568 57.1069 49.0155 57.283V57.2791Z" fill="#898484"/>
<path d="M33.0648 61.8946C33.3582 61.5777 33.7259 61.3391 34.0624 61.0613C35.7719 59.6647 36.5974 57.4427 36.9221 55.2598C37.2429 57.0515 38.4595 58.6163 40.0048 59.5787C41.55 60.541 43.3965 60.944 45.2195 60.9674C45.4347 60.9674 45.6733 60.9792 45.8181 61.1318C45.912 61.2296 45.9472 61.3665 45.9785 61.4956C46.1623 62.3093 46.178 63.1621 46.0254 63.9836L45.6929 64.5352C45.7907 66.6125 45.8885 68.6898 45.9863 70.7632C46.002 71.1153 46.002 71.5104 45.7477 71.753C45.5403 71.9525 45.2235 71.9799 44.9379 71.9642C44.1124 71.9251 43.3222 71.6317 42.5672 71.3031C38.9563 69.7226 35.8345 67.1602 33.2252 64.2027C32.9318 63.8702 32.6306 63.5025 32.5875 63.0565C32.5484 62.6262 32.7675 62.2037 33.0648 61.8868V61.8946Z" fill="#D9D9D9"/>
<path d="M52.8256 53.6244C52.8178 54.8058 52.763 55.9872 52.5479 57.1491C52.1958 59.0426 51.4134 60.8264 50.6388 62.5908C50.2632 63.4436 49.8525 64.3395 49.0818 64.8559C47.6813 65.7947 45.4358 65.4583 43.9335 64.9615C42.6347 64.5351 41.4298 63.87 40.2327 63.2089C39.2273 62.6534 38.1906 62.0705 37.5178 61.1355C37.107 60.5643 36.8605 59.8993 36.6141 59.2382C36.3598 58.5457 36.1016 57.8533 35.8473 57.1609C35.8747 57.2352 34.9045 57.5403 34.7911 57.5325C34.4781 57.5129 34.3373 57.3643 34.1104 57.1609C33.4844 56.6171 33.0502 55.9638 32.7138 55.2127C32.0957 53.8317 31.7827 52.3295 31.6458 50.8233C31.4345 48.5152 31.6301 46.1289 32.5495 43.9968C33.4688 41.8687 35.1705 40.0222 37.3495 39.2319C38.6953 38.7429 40.1584 38.6725 41.5824 38.7821C43.7536 38.9503 45.9169 39.541 47.7595 40.699C49.1718 41.587 50.4745 43.1283 51.2921 44.5797C52.1762 46.1563 52.63 47.9597 52.7278 49.7593C52.7982 51.0463 52.8413 52.3334 52.8295 53.6205L52.8256 53.6244Z" fill="#F2F2F2"/>
<path d="M45.327 49.6301C43.7622 50.0643 42.0956 50.393 40.8398 51.4218C40.12 52.0125 39.588 52.791 38.9542 53.4717C38.3205 54.1524 37.5224 54.7627 36.5953 54.8331C36.6148 53.28 35.3865 51.8013 33.8529 51.5392C32.3194 51.2771 32.2529 54.0625 32.4876 54.9544C30.9032 52.169 30.2891 48.8438 30.7702 45.675C30.868 45.0413 31.005 44.4114 31.271 43.8285C31.7287 42.8192 32.5502 41.6808 33.3365 40.9023C35.1243 39.1419 37.4364 37.8666 39.9244 37.5458C42.3812 37.2289 44.924 37.8627 47.017 39.1888C49.106 40.515 50.7452 42.5102 51.7584 44.7674C51.9149 45.1156 52.0596 45.499 51.9814 45.8745C51.7623 46.9191 50.1153 46.2227 49.4972 46.9112C49.149 47.3024 48.9456 47.7562 48.5388 48.1122C47.6351 48.8986 46.4615 49.3171 45.327 49.634V49.6301Z" fill="#868686"/>
<path d="M77.71 7.62238C78.465 7.81016 78.2381 8.85076 78.0347 9.35933C77.8273 9.87963 77.4987 10.3452 77.2366 10.842C76.8063 11.6557 76.5598 12.5633 76.5207 13.4826C76.5012 13.9012 76.5285 14.3198 76.4738 14.7345C76.419 15.1492 76.2821 15.5678 75.9848 15.8651C75.5544 16.2954 74.8385 16.3775 74.2948 16.1076C73.751 15.8416 73.3833 15.2665 73.305 14.6641C73.2385 14.1477 73.3637 13.6196 73.5749 13.1384C73.7823 12.6611 74.0718 12.219 74.3417 11.7731C74.7134 11.1628 75.0615 10.5408 75.3823 9.90311C75.6092 9.45322 75.84 8.97595 76.2547 8.69037C76.3251 8.64343 76.3994 8.60039 76.4464 8.53389C76.4933 8.4713 76.5129 8.39305 76.5403 8.31873C76.7085 7.85319 77.221 7.49328 77.7022 7.61456L77.71 7.62238Z" fill="#F2F2F2"/>
<path d="M44.923 103.769C44.5318 103.362 43.9176 103.28 43.3543 103.241C42.122 103.155 40.8858 103.159 39.6535 103.249C39.5244 103.104 39.7826 102.932 39.9743 102.909C40.9523 102.791 41.9303 102.674 42.9083 102.557C43.1352 102.529 43.3699 102.502 43.5655 102.388C43.765 102.275 43.9176 102.056 43.8863 101.829C43.8472 101.567 43.589 101.403 43.3425 101.305C42.4193 100.925 41.3826 100.945 40.385 100.972C37.3806 101.054 34.3057 101.152 31.5047 102.244C30.8318 102.506 30.2998 102.392 29.8342 101.833C29.3139 101.211 29.0831 100.503 29.1418 99.7008C28.7897 99.7243 28.3907 99.9551 28.1794 100.233C27.9721 100.503 27.8665 100.831 27.7921 101.164C27.6513 101.79 27.6239 102.431 27.5418 103.069C27.4714 103.644 27.4244 104.184 26.8102 104.419C26.376 104.583 25.9496 104.36 25.5779 104.153C24.2869 103.433 15.7 96.8372 14.8472 95.6988C14.4677 95.1941 13.9513 94.6308 13.8379 93.9814C13.7166 93.2929 14.1704 92.6591 14.5068 92.1036C15.1093 91.106 17.48 87.7651 18.1137 87.1392C18.368 86.8888 18.6301 86.6424 18.8961 86.3959C20.6761 84.7529 22.5852 83.2546 24.5999 81.9088C25.2337 81.4863 25.8909 81.0677 26.3642 80.4653C27.3188 79.2486 27.131 77.23 26.4777 75.9273C25.6679 74.3116 24.1187 73.091 22.3583 72.6803C20.7583 72.3086 19.0096 72.6177 17.6286 73.5018C17.1279 73.8187 16.5606 74.1317 16.2672 74.652C15.8252 75.4305 15.5396 76.2598 14.9958 76.9875C14.3777 77.8207 13.5797 78.5014 12.7973 79.186C9.74977 81.8462 6.82355 84.6668 4.35114 87.8669C3.27924 89.2556 2.25428 90.7148 1.38972 92.2484C0.724668 93.4298 -0.194663 95.2606 0.583834 96.5712C1.13935 97.5061 1.99217 98.1868 2.90368 98.758C4.35114 99.6617 10.317 103.621 11.917 104.603C14.9489 106.465 25.9417 111.28 28.332 111.488C31.6729 111.777 34.8456 110.154 38.1199 109.43C39.5205 109.121 40.9914 108.965 42.2432 108.264C42.4858 108.131 42.7244 107.967 42.8614 107.728C42.9983 107.49 43.01 107.153 42.8144 106.958C43.3269 106.887 43.8589 106.809 44.2775 106.508C44.6961 106.207 44.9543 105.612 44.7078 105.158C45.2555 105.013 45.3142 104.18 44.923 103.773V103.769Z" fill="#F2F2F2"/>
<path d="M28.9034 72.171C29.8422 75.2381 30.0418 78.5242 29.5293 81.6851C29.2711 83.2852 28.8251 84.8539 28.1992 86.3483C27.9762 86.8803 27.6632 88.0031 27.1586 88.3082C26.5796 88.6525 25.2847 88.3434 24.6744 88.2261C21.0675 87.5454 17.7814 85.648 14.9765 83.2852C14.1628 82.6005 13.3803 81.869 12.7388 81.024C12.3867 80.5624 12.0698 80.0108 12.1559 79.4357C12.2028 79.1227 12.3671 78.8411 12.5353 78.5711C15.2542 74.1231 18.9707 70.2463 23.4734 67.6252C24.4554 67.0541 25.4216 66.6707 26.3136 67.5665C27.0412 68.2942 27.6046 68.8849 28.0388 69.8551C28.3791 70.6101 28.6686 71.3886 28.9112 72.1788L28.9034 72.171Z" fill="#7C7C7C"/>
<path d="M154.773 65.6928C154.726 65.5089 154.577 65.372 154.436 65.2507C149.749 61.104 144.766 56.8046 142.641 50.9209C142.199 49.6925 141.804 48.4407 141.558 47.1536C141.323 45.9487 141.362 44.7242 141.139 43.5232C139.864 36.6889 135.916 30.5743 134.641 23.7361C134.508 23.0163 134.215 22.3082 134.273 21.5649C134.336 20.759 134.837 20.3639 135.283 19.7341C136.327 18.2592 136.906 16.5105 137.391 14.7892C138.095 12.2816 138.635 9.70748 138.678 7.10205C138.69 6.44483 138.667 5.79152 138.635 5.13429C138.624 4.86827 138.608 4.59834 138.506 4.35188C138.405 4.10542 138.201 3.88635 137.939 3.83549C137.579 3.76899 137.243 4.03501 136.992 4.30494C137.196 4.08586 137.078 3.3504 137.024 3.0922C136.941 2.70491 136.738 2.38412 136.288 2.40368C136.006 2.41542 135.803 2.59146 135.654 2.81445C135.611 2.87704 135.318 3.45211 135.447 3.50688C134.391 3.08829 134.097 4.58269 133.906 5.25557C133.62 6.24923 133.421 7.26245 133.307 8.2874C133.213 9.11285 133.178 9.95002 133.002 10.7637C132.979 10.8654 132.877 10.9985 132.802 10.9241C132.775 10.8967 132.771 10.8576 132.771 10.8185C132.724 9.86787 132.709 8.92116 132.728 7.97053C132.744 7.22724 132.865 6.10448 132.392 5.4629C131.946 4.85654 131.562 5.83846 131.433 6.1749C131.23 6.70694 131.062 7.25462 130.933 7.81013C130.659 8.99157 130.553 10.2043 130.49 11.4131C130.428 12.5711 130.115 13.6743 129.712 14.7658C129.211 16.1232 128.503 17.4259 128.265 18.8656C128.057 20.094 128.315 21.4006 128.437 22.6368C128.527 23.5444 129.364 33.927 129.645 35.437C131.124 43.2963 133.687 50.6862 136.656 58.0878C137.407 59.9538 138.311 61.7573 139.21 63.5529C141.738 68.5916 144.265 73.6304 146.792 78.6691C148.678 74.2485 151.263 70.1291 154.424 66.5104C154.628 66.2757 154.851 65.9901 154.773 65.6889V65.6928Z" fill="#EBEBEB"/>
<path d="M134.195 11.6589C134.234 11.9797 134.32 12.2927 134.324 12.6135C134.328 13.079 134.159 13.5289 133.976 13.9592C133.682 14.6399 133.338 15.3011 132.947 15.9348C132.536 16.5999 132.078 17.2414 131.75 17.9495C131.566 18.3407 131.425 18.7632 131.421 19.1975C131.417 19.6317 131.562 20.0816 131.887 20.3711C132.262 20.7114 132.825 20.7858 133.322 20.6762C133.819 20.5667 134.261 20.2968 134.684 20.0151C134.95 19.8351 135.22 19.6474 135.407 19.3892C135.677 19.0214 135.767 18.552 135.842 18.0982C136.123 16.4277 136.354 14.7495 136.538 13.0673C136.565 12.8091 136.593 12.5509 136.55 12.2966C136.468 11.8154 136.143 11.4047 136.029 10.9313C135.955 10.6183 135.971 10.2897 135.92 9.97286C135.869 9.65598 135.724 9.32346 135.435 9.18262C134.406 8.67406 134.132 11.1113 134.199 11.6668L134.195 11.6589Z" fill="#F2F2F2"/>
<path d="M148.52 62.1604C147.343 62.5008 146.228 63.0798 145.262 63.8426C143.599 65.1571 142.375 66.9801 141.62 68.9635C141.534 69.1904 141.451 69.4368 141.51 69.6716C141.557 69.8593 141.682 70.0158 141.803 70.1684C143.857 72.7347 145.093 75.9504 145.281 79.2326C145.309 79.7373 145.328 80.2771 145.637 80.6761C146.435 81.705 147.21 80.2615 147.687 79.7294C148.477 78.8531 149.307 78.012 150.117 77.1553C151.697 75.4927 153.25 73.7479 154.259 71.6667C154.584 70.9938 154.854 70.2779 154.901 69.5307C154.983 68.271 154.302 66.9488 153.794 65.826C153.215 64.5429 152.519 63.3106 151.72 62.1526C151.654 62.0587 151.587 61.9609 151.486 61.9061C151.388 61.8514 151.267 61.8436 151.153 61.8357C150.261 61.8005 149.373 61.9179 148.517 62.1604H148.52Z" fill="#737373"/>
<path d="M140.71 193.018C139.923 193.585 139.211 194.254 138.589 194.997C138.014 195.686 137.514 196.46 137.322 197.337C137.134 198.213 137.306 199.203 137.932 199.84C138.515 200.435 139.387 200.646 140.217 200.689C142.294 200.803 144.352 200.044 146.054 198.843C147.658 197.712 149.046 196.163 150.928 195.615C152.102 195.275 153.353 195.361 154.562 195.193C155.771 195.025 157.058 194.497 157.575 193.386C157.868 192.76 157.868 192.036 157.77 191.351C157.512 189.524 156.585 187.803 155.196 186.586C154.731 187.158 154.148 187.647 153.463 187.909C152.778 188.171 151.98 188.19 151.319 187.87C150.822 187.627 150.416 187.208 149.883 187.056C148.46 186.645 147.599 188.452 146.723 189.235C145.592 190.244 144.227 190.933 142.912 191.66C142.153 192.079 141.402 192.509 140.698 193.014L140.71 193.018Z" fill="#9A9A9A"/>
<path d="M157.588 147.514C159.509 143.86 160.929 139.944 163.073 136.419C161.242 134.659 160.589 132.05 159.752 129.652C159.052 127.641 158.148 125.657 156.716 124.085C155.284 122.512 153.246 121.385 151.118 121.436C146.56 121.546 144.784 127.418 143.396 130.896C141.596 135.41 140.266 140.093 138.92 144.756C137.657 149.126 137.371 153.703 137.128 158.225C136.976 161.089 136.757 163.6 138.056 166.323C138.936 168.166 140.16 169.82 141.287 171.522C142.77 173.764 144.096 176.111 145.246 178.54C145.915 179.949 146.517 181.404 146.877 182.926C147.151 184.076 147.276 185.222 147.202 186.411C147.147 187.311 147.065 188.324 146.615 189.115C146.455 189.396 146.244 189.643 146.032 189.885C145.336 190.691 144.64 191.501 143.865 192.236C143.755 192.338 143.489 192.522 143.54 192.694C143.591 192.882 143.986 192.945 144.139 192.948C144.397 192.956 144.647 192.882 144.894 192.808C148.29 191.783 151.627 190.554 154.866 189.111C155.179 188.97 155.499 188.821 155.719 188.559C156.266 187.894 155.589 187.163 155.292 186.572C154.799 185.602 154.78 184.467 154.815 183.38C154.944 179.397 155.66 175.313 154.537 171.487C154.115 170.04 153.43 168.67 152.562 167.438C151.525 165.967 150.433 164.496 150.762 162.556C151.161 160.185 152.151 157.728 153.164 155.557C154.459 152.783 156.161 150.217 157.588 147.506V147.514Z" fill="#EBEBEB"/>
<path d="M157.999 206.933C157.725 207.665 157.49 208.408 157.333 209.175C157.212 209.754 157.138 210.341 157.13 210.932C157.122 211.432 157.427 212.023 157.901 212.246C158.143 212.359 158.421 212.375 158.687 212.383C161.069 212.434 163.432 211.702 165.494 210.501C167.724 209.199 169.629 207.34 170.986 205.142C171.448 204.395 171.851 203.593 171.984 202.724C172.098 202.012 172.344 201.687 172.845 201.191C173.365 200.674 173.987 200.228 174.316 199.555C174.797 198.577 174.429 197.11 174.089 196.124C173.694 194.974 173.025 193.918 172.141 193.081C172.328 193.261 172.074 194.114 171.957 194.294C171.71 194.673 171.245 194.661 170.822 194.693C169.832 194.767 168.823 194.587 167.927 194.149C167.575 193.977 167.196 193.809 166.859 193.613C166.535 193.421 166.3 193.12 166.038 192.842C162.947 196.79 160.389 201.155 158.456 205.779C158.296 206.163 158.143 206.546 157.999 206.933Z" fill="#9A9A9A"/>
<path d="M176.987 145.663C177.116 145.271 177.241 144.88 177.359 144.485C178.278 141.441 178.885 138.261 178.681 135.088C178.603 133.852 178.2 133.12 176.944 133.046C175.356 132.952 173.791 132.8 172.218 132.542C169.124 132.033 166.061 131.297 162.931 131.039C161.863 130.953 160.439 130.789 159.406 131.153C158.432 131.493 158.397 132.6 158.217 133.559C158.108 134.134 158.006 134.705 157.908 135.28C156.918 141.031 156.363 146.856 156.249 152.692C156.191 155.611 156.245 158.529 156.41 161.444C156.562 164.155 156.668 166.87 157.454 169.463C157.939 171.071 158.87 172.53 159.633 174.025C160.901 176.509 161.894 179.122 162.955 181.7C163.635 183.351 164.238 185.037 164.684 186.77C165.188 188.726 165.521 190.796 165.282 192.826C165.185 193.675 164.985 194.524 164.754 195.349C164.105 197.689 163.455 200.028 162.61 202.305C162.438 202.771 161.699 204.21 162.693 204.179C162.9 204.171 163.095 204.085 163.279 203.991C164.617 203.322 165.76 202.325 166.882 201.339C168.854 199.61 170.834 197.865 172.477 195.823C172.629 195.631 172.782 195.436 172.868 195.205C173.028 194.767 172.84 194.524 172.719 194.137C172.602 193.761 172.735 193.393 172.79 193.01C173.435 188.523 173.779 183.965 173.384 179.451C173.239 177.788 172.989 176.114 172.375 174.561C171.776 173.055 170.853 171.701 170.204 170.203C169.652 168.92 170.071 168.102 170.341 166.87C170.673 165.356 173.083 156.378 174.135 153.463C175.078 150.858 176.134 148.295 176.995 145.663H176.987Z" fill="#F2F2F2"/>
<path d="M175.138 115.051C174.708 114.429 174.293 113.799 173.976 113.111C173.377 111.812 173.565 110.724 173.589 109.367C173.612 107.919 173.757 106.511 173.992 105.079C175.204 97.6894 176.421 90.2761 178.487 83.0779C178.815 81.9356 179.163 80.7972 179.48 79.647C179.742 78.6925 180.165 77.5189 179.476 76.6621C179.191 76.3061 178.811 76.044 178.436 75.7858C173.546 72.4371 168.472 69.331 163.077 66.8781C162.725 66.7177 162.565 66.8664 162.248 66.9172C161.825 66.9837 161.356 66.8859 160.918 66.9446C159.955 67.0776 159.627 67.8992 158.848 68.3764C158.015 68.8889 156.966 69.2958 155.981 69.3818C154.118 69.5422 152.112 68.1456 150.316 67.6879C148.786 71.5217 147.147 75.3125 145.406 79.0524C144.252 81.5287 143.043 84.0129 142.425 86.677C140.328 95.749 145.395 104.876 145.923 114.171C146.212 119.245 145.387 124.659 143.306 129.279C142.343 131.415 141.514 133.61 140.817 135.848C140.555 136.696 140.309 137.608 140.559 138.461C140.743 139.083 141.17 139.599 141.619 140.065C144.381 142.901 148.297 144.298 152.17 145.115C159.932 146.75 168.104 146.379 175.686 144.043C176.593 143.766 177.947 143.726 178.416 142.768C178.553 142.486 178.608 142.177 178.659 141.868C179.293 138.156 179.926 134.427 180.063 130.66C180.134 128.712 180.071 126.74 179.645 124.839C179.32 123.388 178.788 121.987 178.209 120.614C177.595 119.159 176.918 117.723 176.057 116.397C175.76 115.943 175.443 115.497 175.13 115.051H175.138Z" fill="#6D6D6D"/>
<path d="M154.383 77.1364C154.406 77.3867 154.441 77.6371 154.563 77.8562C154.707 78.1105 154.954 78.2943 155.22 78.4195C155.897 78.7403 156.691 78.7207 157.426 78.5799C158.964 78.2865 160.368 77.5198 161.718 76.7256C163.858 75.4659 165.97 74.085 167.59 72.2111C168.044 71.683 168.478 71.0727 168.501 70.3763C168.509 70.2003 168.486 70.0164 168.384 69.8717C168.294 69.7426 168.157 69.6604 168.02 69.5822C167.433 69.2419 166.843 68.9093 166.311 68.4868C165.27 67.6614 164.503 66.5308 163.944 65.3259C163.384 64.121 163.013 62.8417 162.641 61.5625C162.7 61.7659 162.379 62.4232 162.332 62.654C162.258 63.01 162.152 63.2564 161.992 63.5811C161.675 64.2305 161.334 64.8604 160.908 65.4433C160.071 66.5895 158.979 67.5597 157.681 68.1504C156.648 68.6159 155.521 68.8389 154.402 69.0032C154.242 69.0267 154.066 69.058 153.968 69.1871C153.905 69.2653 153.886 69.367 153.87 69.4648C153.694 70.5993 153.984 71.8981 154.07 73.0405C154.171 74.3549 154.273 75.6733 154.371 76.9877C154.371 77.0347 154.379 77.0816 154.383 77.1246V77.1364Z" fill="#D9D9D9"/>
<path d="M146.787 54.9579C146.583 56.0298 146.489 57.129 146.489 58.2166C146.497 61.0372 147.487 63.5761 148.578 66.1385C149.251 67.7111 149.928 69.2838 150.609 70.8564C150.828 71.3611 151.055 71.8736 151.446 72.2608C152.033 72.8477 152.913 73.0511 153.742 73.0315C154.732 73.008 155.69 72.7068 156.618 72.3586C158.241 71.7445 159.802 70.962 161.269 70.031C161.942 69.6046 162.607 69.1312 163.076 68.4857C163.483 67.9263 163.706 67.2456 163.745 66.5571C163.757 66.3537 163.597 64.5971 163.597 64.5971C165.103 64.3781 166.339 63.1927 166.973 61.8118C167.607 60.4269 167.728 58.866 167.72 57.3442C167.712 55.7403 167.567 54.1363 167.297 52.5559C167.012 50.8972 166.562 49.2189 165.564 47.8614C164.164 45.9601 161.824 44.9274 159.485 44.6027C157.537 44.3327 155.499 44.5127 153.715 45.3303C152.561 45.8584 151.614 46.7817 150.695 47.6541C149.732 48.5656 148.907 49.6257 148.265 50.7876C147.546 52.0864 147.064 53.5026 146.787 54.9579Z" fill="#F2F2F2"/>
<path d="M148.778 53.4627C149.525 53.5801 150.35 53.541 151.011 53.6388C152.314 53.8266 153.605 54.12 154.83 54.605C156.743 55.3679 158.507 56.6471 159.54 58.431C159.95 59.143 160.244 59.9254 160.768 60.5592C161.288 61.1929 162.137 61.6585 162.924 61.4198C162.685 60.434 163.029 59.3269 163.784 58.6501C164.348 58.1455 165.193 57.8873 165.885 58.1963C166.425 58.4389 166.785 58.9865 166.902 59.5655C167.019 60.1445 166.918 60.747 166.726 61.3064C166.617 61.6311 166.472 61.948 166.292 62.2414C165.267 63.8923 163.178 64.5338 161.84 65.9461C161.683 66.1104 161.535 66.2982 161.515 66.5212C161.5 66.7246 161.593 66.9163 161.687 67.0923C162.036 67.7339 162.65 69.0092 163.444 69.0366C164.43 69.0718 165.4 68.7197 166.276 68.3011C167.841 67.55 169.261 66.5016 170.439 65.2263C171.663 63.904 171.237 62.1044 171.111 60.4496C170.967 58.5836 170.736 56.7176 170.29 54.8945C169.598 52.0544 168.361 49.2886 166.347 47.1722C164.332 45.0518 161.476 43.6396 158.554 43.7491C156.731 43.8195 154.966 44.465 153.366 45.3413C151.766 46.2215 150.303 47.3404 149.032 48.6509C148.265 49.4411 146.728 50.873 146.923 52.1092C147.056 52.9385 148.066 53.3493 148.782 53.4627H148.778Z" fill="#959595"/>
<path d="M177.285 92.0096C178.431 93.77 179.299 95.7104 180.594 97.3652C181.568 98.6092 182.765 99.6654 183.982 100.671C185.746 102.13 187.604 103.527 189.733 104.376C190.284 104.595 190.898 104.778 191.462 104.599C192.225 104.36 192.647 103.55 192.87 102.783C193.453 100.765 193.179 98.5662 192.393 96.618C191.607 94.6698 190.331 92.9563 188.915 91.4071C188.324 90.7616 187.702 90.1396 187.217 89.412C186.267 87.9841 185.899 86.2549 185.257 84.6588C184.24 82.1277 182.491 79.8979 180.273 78.3096C180.269 79.2328 179.557 80.0348 178.716 80.4221C177.879 80.8094 176.929 80.8602 176.005 80.8876C175.082 80.915 174.135 80.9346 173.275 81.2632C172.915 81.4001 172.563 81.5996 172.32 81.9008C171.428 83.0158 172.281 84.7918 172.864 85.8598C173.552 87.1195 174.523 88.2814 175.391 89.4159C176.04 90.2648 176.694 91.1098 177.277 92.0057L177.285 92.0096Z" fill="#EBEBEB"/>
<path d="M182.279 89.6702C183.28 88.743 184.235 87.8589 185.103 86.7792C185.6 86.1611 186.257 85.1909 185.764 84.4085C184.035 81.6661 182.275 78.8886 179.877 76.7096C178.785 75.7159 177.518 74.8474 176.094 74.4093C174.889 74.0377 173.093 73.8733 172.064 74.777C171.423 75.3404 171.036 76.4279 170.695 77.1947C170.12 78.4935 169.776 79.8823 169.549 81.2828C168.888 85.4256 169.314 89.8071 171.223 93.5431C172.945 94.036 174.787 93.5627 176.473 92.9485C178.574 92.1817 180.624 91.1724 182.275 89.6663L182.279 89.6702Z" fill="#737373"/>
<path d="M192.841 99.8223C192.215 98.2614 190.916 97.0643 189.492 96.1684C188.389 95.4721 187.184 94.9244 185.916 94.631C183.632 94.0989 181.249 94.4041 178.91 94.5567C177.212 94.6662 175.514 94.6975 173.816 94.6701C170.734 94.6232 161.857 93.9777 160.613 93.5317C159.561 93.1522 159.029 92.0138 158.559 91.1062C158.035 90.0969 157.523 89.0289 156.615 88.3482C155.966 87.8631 155.172 87.6167 154.467 87.2176C152.977 86.3726 151.862 84.8196 150.192 84.444C149.98 84.3971 149.753 84.3658 149.593 84.221C149.433 84.0763 149.37 83.8494 149.225 83.6929C148.901 83.3408 148.318 83.4464 147.887 83.243C147.496 83.0591 147.148 82.6132 146.745 82.7579C146.514 82.8401 146.393 83.0944 146.362 83.3369C146.26 84.1936 147.023 84.8743 147.711 85.3946C149.026 86.3844 150.336 87.3741 151.651 88.3639C152.805 89.2324 154.002 90.1556 154.597 91.4701C154.194 91.5366 153.842 91.2236 153.544 90.9458C152.957 90.4021 152.328 89.9052 151.663 89.4593C151.463 89.3262 151.232 89.1932 151.001 89.248C150.708 89.3184 150.563 89.6549 150.548 89.9522C150.516 90.6211 150.915 91.2431 151.4 91.7048C151.886 92.1664 152.468 92.5224 152.95 92.984C153.775 93.7742 154.276 94.8344 154.87 95.8163C155.465 96.7944 156.228 97.7567 157.312 98.1244C158.016 98.3631 158.779 98.324 159.522 98.3474C160.081 98.3631 160.649 98.2809 161.208 98.3826C161.795 98.4922 162.358 98.7817 162.914 99.0047C164.244 99.5406 165.57 100.08 166.9 100.613C169.56 101.669 172.24 102.686 174.974 103.535C179.642 104.99 184.508 105.964 189.394 105.819C190.529 105.784 191.268 105.276 192.066 104.513C193.279 103.351 193.471 101.391 192.849 99.8301L192.841 99.8223Z" fill="#F2F2F2"/>
<path d="M99.7486 216.555C99.6437 216.429 99.5345 216.306 99.4209 216.188C99.4515 216.621 99.517 217.285 99.0714 217.451C98.687 217.595 98.2196 217.324 97.9793 217.045C97.5381 216.529 96.9877 216.289 96.328 216.127C95.3014 215.874 94.2049 216.057 93.4492 216.835C92.1692 218.154 90.85 219.307 89.3341 220.36C88.3687 221.033 87.3726 221.658 86.346 222.23C85.0006 222.981 83.6026 223.65 82.3183 224.497C81.0296 225.345 79.837 226.393 79.0725 227.734C78.3386 229.027 77.4693 230.98 78.059 232.483C78.8279 234.457 81.9164 234.112 83.559 233.846C85.3937 233.549 87.1367 232.841 88.7837 231.985C89.7797 231.465 90.7582 230.884 91.5926 230.128C92.2391 229.543 92.7983 228.861 93.5191 228.368C94.6767 227.581 96.1052 227.393 97.4289 227.035C98.7045 226.69 100.212 226.188 100.858 224.943C101.168 224.349 101.304 223.68 101.382 223.012C101.649 220.745 101.203 218.29 99.7617 216.542L99.7486 216.555Z" fill="#3E6E9F"/>
<path d="M100.353 192.918C100.423 189.358 101.118 185.832 100.349 182.294C99.3571 177.436 98.5315 172.522 97.9592 167.576C96.8278 157.747 96.6749 147.647 93.298 138.351C92.5073 136.171 91.5244 134.022 90.0173 132.253C88.5539 130.532 84.8144 127.662 82.3899 129.151C81.2279 129.863 81.4289 131.637 80.9876 132.764C80.3629 134.367 80.3629 135.988 80.293 137.714C80.2231 139.496 80.2013 141.283 80.2275 143.065C80.2581 145.245 80.3586 147.42 80.5246 149.596C81.0139 155.908 82.0929 162.177 83.7398 168.289C85.5265 174.916 87.7064 181.307 87.4093 188.253C87.287 191.158 87.7195 194.058 88.2612 196.906C88.5626 198.492 88.9077 200.065 89.2222 201.646C90.3362 207.199 91.0745 212.821 91.4414 218.469C91.4589 218.74 91.4807 219.024 91.6293 219.247C91.7428 219.413 91.9132 219.531 92.0879 219.636C94.2722 220.959 98.313 221.304 100.336 219.378C101.096 218.657 100.786 217.543 100.738 216.635C100.668 215.307 100.606 213.978 100.55 212.65C100.44 209.994 100.288 195.924 100.349 192.918H100.353Z" fill="#444F42"/>
<path d="M103.091 223.406C100.828 225.782 98.8757 228.456 96.9885 231.147C95.5338 233.217 94.0966 235.319 93.0656 237.634C92.869 238.075 92.6855 238.534 92.6855 239.019C92.6855 240.115 93.7733 240.709 94.7169 240.901C96.1629 241.19 97.6569 241.089 99.1116 240.862C101.23 240.535 103.336 239.936 105.184 238.844C107.032 237.756 108.617 236.149 109.443 234.165C109.801 233.305 110.02 232.37 110.557 231.61C111.094 230.854 111.916 230.321 112.409 229.535C113.078 228.456 113.065 226.656 112.929 225.446C112.772 224.009 112.269 222.602 111.444 221.405C111.378 221.706 111.308 222.025 111.099 222.261C110.483 222.96 109.718 221.768 109.212 221.427C108.631 221.038 107.8 220.54 107.093 220.479C106.32 220.413 105.564 221.047 105.027 221.523C104.354 222.121 103.707 222.75 103.087 223.406H103.091Z" fill="#3E6E9F"/>
<path d="M114.775 174.374C117.134 164.689 118.222 154.785 117.99 144.782C117.925 141.894 117.859 138.993 117.383 136.145C117.147 134.738 116.798 133.306 115.972 132.139C112.888 135.94 107.781 137.997 102.924 137.39C100.879 137.137 98.922 136.451 96.93 135.927C94.9423 135.407 92.9197 135.049 90.8884 134.747C90.0103 134.616 89.272 134.559 88.525 134.039C88.2585 133.852 86.7907 132.624 86.996 132.231C85.9389 134.297 85.6899 136.674 85.5195 138.989C85.3054 141.903 85.1919 144.891 86.0131 147.695C86.8431 150.53 88.3066 152.946 90.9801 154.405C91.6048 154.746 92.3431 155.026 93.0202 154.798C93.6842 156.52 94.5055 158.236 95.0515 159.988C96.4713 164.558 97.4848 169.249 98.0789 173.998C98.6293 178.397 98.9569 182.787 99.8437 187.138C101.425 194.875 103.007 202.585 103.4 210.492C103.509 212.672 103.509 221.999 103.456 223.095C103.448 223.253 103.439 223.414 103.505 223.554C103.557 223.668 103.653 223.759 103.745 223.842C105.335 225.232 107.585 225.572 109.699 225.581C110.87 225.585 112.975 225.332 113.028 223.742C113.12 220.968 113.495 218.211 114.006 215.477C114.605 212.283 115.326 209.112 115.693 205.884C116.055 202.686 116.073 199.444 115.736 196.242C115.579 194.744 115.33 193.237 114.784 191.826C112.626 186.256 113.399 180.105 114.766 174.448C114.771 174.422 114.78 174.4 114.784 174.374H114.775Z" fill="#505A4E"/>
<path d="M77.3127 107.436C77.1293 108.201 76.9458 108.974 76.9327 109.765C76.9021 111.372 77.5574 112.91 78.2694 114.356C78.7194 115.273 79.2087 116.195 79.9775 116.868C80.6852 117.484 81.6113 117.851 82.5505 117.881C83.4068 117.912 84.2892 117.659 84.9445 117.108C85.84 116.361 86.2332 115.182 86.5739 114.063C87.4564 111.171 88.2645 108.201 88.1684 105.182C88.0723 102.164 86.9452 99.0401 84.5644 97.1791C83.6689 96.4802 82.5768 95.9647 81.4409 95.9865C80.7289 95.9996 80.0081 96.253 79.462 96.7117C78.8242 97.249 78.6801 97.747 78.7063 98.5377C78.7674 100.464 78.466 102.382 78.0597 104.26C77.8282 105.326 77.5661 106.379 77.3084 107.441L77.3127 107.436Z" fill="#FFB78C"/>
<path d="M84.2871 79.071C83.693 79.7918 83.3042 80.6568 82.9416 81.5218C82.0024 83.7453 81.1636 86.0126 80.4865 88.3322C79.9797 90.049 77.7911 97.3706 77.3587 98.17C77.1359 98.585 77.0092 98.7117 77.2276 99.1617C77.4067 99.5286 77.6819 99.8869 77.9266 100.21C78.9138 101.499 80.2288 102.517 81.6704 103.251C83.3784 104.12 85.2612 104.605 87.1615 104.863C86.3839 103.067 85.9253 101.302 86.0825 99.3495C86.2398 97.3837 86.6592 95.4441 87.1572 93.5395C88.1008 89.9136 89.3152 86.314 89.4856 82.5746C89.5293 81.6004 89.4987 80.6 89.123 79.7001C88.7604 78.8395 87.8343 77.8522 86.8645 77.6993C85.9122 77.5508 84.8506 78.3939 84.2871 79.0754V79.071Z" fill="#4F86BF"/>
<path d="M127.319 85.3215C127.065 84.7274 126.559 84.2906 126.061 83.8799C120.535 79.3149 114.462 75.4138 108.01 72.286C107.495 72.037 106.966 71.788 106.411 71.6438C106.001 71.539 105.638 71.3773 105.206 71.3861C104.389 71.4036 103.589 71.6001 102.803 71.8186C101.191 72.2729 99.6183 72.8452 98.0456 73.4174C94.4023 74.7454 90.7546 76.0691 87.1113 77.3971C86.4167 77.6505 85.4731 77.7684 85.1455 78.5023C84.8091 79.2493 84.595 80.0488 84.4552 80.857C84.1844 82.4471 84.2019 84.0678 84.132 85.6754C84.0315 87.8771 83.9529 90.0832 83.8786 92.2893C83.7301 96.6971 83.6078 101.105 83.3806 105.513C83.1534 109.912 80.2266 131.418 80.362 137.839C80.4057 139.897 82.5156 141.142 84.1276 142.112C87.4913 144.139 91.4623 144.916 95.3765 145.244C102.637 145.851 110.19 144.96 116.585 141.465C116.922 141.282 117.267 141.081 117.485 140.766C117.734 140.412 117.796 139.963 117.844 139.534C118.35 135.188 119.779 116.67 120.12 114.586C121.277 107.492 122.872 100.441 125.427 93.7047C126.235 91.5728 127.144 89.4498 127.45 87.1913C127.537 86.5622 127.568 85.8982 127.319 85.3084V85.3215Z" fill="#4F86BF"/>
<path d="M117.102 116.364C117.08 116.783 117.045 117.207 117.124 117.618C117.194 117.993 117.351 118.343 117.513 118.684C118.906 121.593 120.937 124.14 122.951 126.661C123.174 126.94 123.41 127.233 123.738 127.381C124.253 127.617 124.878 127.434 125.315 127.076C125.751 126.717 126.035 126.211 126.298 125.708C127.451 123.511 128.416 121.187 128.823 118.736C129.168 116.652 129.098 114.525 129.229 112.415C129.377 110.043 129.779 107.601 129.076 105.329C128.949 104.923 128.788 104.525 128.512 104.202C127.953 103.538 127.036 103.311 126.175 103.193C124.502 102.966 122.794 103.01 121.134 103.32C120.439 103.451 119.732 103.639 119.155 104.054C118.565 104.482 118.163 105.12 117.866 105.788C116.377 109.139 117.298 112.834 117.098 116.36L117.102 116.364Z" fill="#F8DABC"/>
<path d="M111.859 74.4888C111.706 74.3402 111.536 74.2048 111.374 74.0694C110.854 73.6325 110.3 73.235 109.828 72.7414C109.05 71.9245 108.565 70.8717 108.224 69.8014C107.884 68.7267 107.674 67.6171 107.377 66.5294C107.076 65.4416 106.687 64.3757 106.211 63.3491C105.953 63.7423 105.708 64.1442 105.437 64.5242C104.629 65.6688 103.681 66.7129 102.707 67.7176C102.021 68.4253 101.309 69.1243 100.449 69.5961C98.8759 70.4523 96.9975 70.461 95.2064 70.4435C94.6866 72.0293 95.1365 73.7505 95.5908 75.3581L95.5734 76.4983C95.8224 78.7349 96.0714 80.9716 96.3204 83.2082C96.3422 83.4223 96.3684 83.6364 96.4558 83.8329C96.7048 84.3921 97.3775 84.6149 97.9848 84.6761C99.1249 84.7896 100.269 84.5406 101.366 84.2043C104.813 83.1471 107.971 81.1813 110.452 78.5689C111.012 77.9792 111.636 77.3894 111.964 76.6293C112.27 75.9085 112.458 75.0829 111.859 74.4888Z" fill="#F7C3A1"/>
<path d="M88.297 68.7787C88.7819 71.1814 89.529 73.5229 90.3197 75.8426C90.5293 76.4629 90.739 77.2667 91.3419 77.603C91.9884 77.9613 92.8359 77.9001 93.5392 77.7909C97.2655 77.2099 100.813 75.5848 103.766 73.2389C104.05 73.0118 104.342 72.7671 104.487 72.4351C104.578 72.2254 104.609 71.9983 104.64 71.7711C104.714 71.1945 104.792 70.6222 104.867 70.0456C105.015 68.9272 105.898 68.9535 106.723 68.5166C107.58 68.0666 108.27 67.3327 108.776 66.5158C109.397 65.5198 109.773 64.3928 110.109 63.2701C111.096 59.9325 111.73 56.3154 110.664 52.9998C109.676 49.9331 107.204 47.3819 104.168 46.3072C101.394 45.32 98.314 45.5427 95.4614 46.2723C93.7358 46.7135 92.5039 47.3775 91.189 48.6007C89.9964 49.7103 88.9829 51.047 88.3757 52.5673C87.6243 54.437 87.5631 56.2849 87.5238 58.2681C87.4889 60.0417 87.5064 61.8197 87.6243 63.589C87.7379 65.332 87.9476 67.0706 88.2927 68.7875L88.297 68.7787Z" fill="#F8DABC"/>
<path d="M100.194 56.4996C99.9885 57.2903 99.6827 58.0854 99.7832 58.8979C99.8618 59.5139 100.185 60.0949 100.67 60.4793C101.57 61.2045 103.243 61.2132 103.793 62.3097C103.938 62.6024 104.086 64.0221 104.479 63.9086C104.846 63.8037 104.982 63.3407 105.104 63.0305C105.554 61.8947 106.117 60.737 107.223 60.108C107.559 59.9201 107.926 59.7935 108.306 59.7148C109.346 59.5008 109.914 60.3919 110.097 61.2569C110.219 61.8248 110.215 62.4145 110.32 62.9868C110.779 61.0385 111.233 59.077 111.395 57.0806C111.556 55.0842 111.416 53.0354 110.718 51.157C110.333 50.1304 109.743 49.1212 108.791 48.5796C108.73 48.5446 108.625 49.4227 108.634 49.4969C108.651 49.711 108.839 50.1173 108.647 50.3007C108.463 50.4755 107.668 50.3226 107.441 50.2789C106.2 50.0605 105.104 49.3659 104.008 48.7412C102.911 48.1165 101.718 47.5399 100.456 47.5966C100.286 47.6054 100.111 47.6272 99.9754 47.7321C99.7919 47.8762 99.7395 48.1296 99.722 48.3655C99.6128 49.676 100.028 50.8861 100.286 52.1442C100.583 53.5771 100.552 55.0842 100.189 56.504L100.194 56.4996Z" fill="#476147"/>
<path d="M94.726 55.184C97.1199 55.3413 99.5357 54.9787 101.733 54.0308C102.707 53.6114 103.664 53.0522 104.276 52.1829C104.359 52.0606 104.442 51.9295 104.573 51.8596C104.774 51.7504 104.966 51.9208 105.145 51.9994C105.424 52.1261 105.735 52.2091 106.036 52.2702C106.652 52.3969 107.294 52.3882 107.897 52.1916C108.469 52.0081 108.98 51.663 109.548 51.4752C110.365 51.2 110.999 51.9732 111.147 52.7464C111.497 51.6456 111.693 50.4486 111.361 49.3434C111.095 48.4609 110.409 47.6353 109.509 47.3513C108.836 47.1417 108.085 47.2072 107.403 47.015C106.709 46.8184 106.137 46.3247 105.542 45.9359C104.616 45.32 103.559 44.9225 102.48 44.6472C99.5969 43.9046 96.4603 44.0007 93.7256 45.1715C93.4024 45.3113 93.0835 45.4642 92.7777 45.6345C91.2312 46.4776 89.877 47.6877 88.9072 49.1599C88.1296 50.3394 87.3564 52.2528 88.6407 53.3842C89.2086 53.8866 89.9294 54.1749 90.6459 54.4064C91.9651 54.8302 93.3368 55.0967 94.7217 55.1884L94.726 55.184Z" fill="#4A734B"/>
<path d="M74.7575 112.24C74.9672 113.188 75.5482 114.005 76.1467 114.774C76.5879 115.346 77.0466 115.91 77.5359 116.438C78.2654 117.225 79.0998 117.963 80.122 118.29C81.1399 118.622 82.3805 118.461 83.097 117.661C83.8221 116.853 83.8483 115.63 83.6299 114.568C83.3809 113.358 82.8698 112.196 82.1446 111.196C81.8825 110.833 81.5855 110.488 81.2054 110.252C80.8253 110.017 80.3841 109.907 79.9648 109.759C78.8595 109.361 77.8766 108.671 77.0335 107.854C76.2428 107.09 75.2512 106.906 75.0895 108.177C74.9235 109.505 74.4648 110.899 74.7619 112.24H74.7575Z" fill="#F7C3A1"/>
<path d="M86.6058 99.4587C84.8758 100.59 81.9752 100.747 80.1186 99.8082C78.262 98.869 78.1615 97.1958 79.8914 96.0644C81.6213 94.933 84.522 94.7757 86.3786 95.7149C88.2352 96.6541 88.3357 98.3273 86.6101 99.4587H86.6058Z" fill="#C6C2B7"/>
<path d="M85.9485 116.272C84.2666 117.242 81.5363 117.238 79.8457 116.259C78.1551 115.285 78.1464 113.708 79.8282 112.738C81.5101 111.768 84.2404 111.773 85.931 112.751C87.6216 113.726 87.6303 115.303 85.9485 116.272Z" fill="#656566"/>
<path d="M89.6114 97.7685L76.1172 97.6768L77.8515 113.775C77.9083 114.474 78.3932 115.168 79.3237 115.701C81.2938 116.837 84.4741 116.846 86.4312 115.714C87.3136 115.203 87.7941 114.552 87.8771 113.879H87.8815L89.6071 97.7641L89.6114 97.7685Z" fill="#EDEEF0"/>
<path d="M88.8897 100.17L87.1903 113.621L78.5757 113.547L76.8545 100.262L88.8897 100.17Z" fill="#5C0000"/>
<path d="M87.1636 102.375C84.809 103.734 80.9822 103.729 78.6101 102.362C76.8671 101.357 76.3997 99.894 77.2122 98.6533C77.5092 99.0902 77.9679 99.4964 78.5795 99.8503C80.9691 101.226 84.8265 101.235 87.1985 99.8634C87.797 99.5183 88.2426 99.1208 88.5353 98.697C89.3391 99.9377 88.8804 101.384 87.1636 102.375Z" fill="#750000"/>
<path d="M87.677 100.144C85.0385 101.669 80.7486 101.66 78.0926 100.126C75.4366 98.5932 75.4235 96.1162 78.062 94.5916C80.7006 93.067 84.9904 93.0758 87.6465 94.6091C90.3025 96.1424 90.3156 98.6194 87.677 100.144Z" fill="#E8E9EB"/>
<path d="M87.2 99.8642C84.8279 101.236 80.9662 101.227 78.581 99.8467C76.1914 98.4663 76.1827 96.2383 78.5548 94.871C80.9268 93.4993 84.7886 93.508 87.1738 94.8885C89.5633 96.2689 89.5721 98.4968 87.2 99.8642Z" fill="white"/>
<path d="M85.9485 115.193C84.2666 116.163 81.5363 116.159 79.8457 115.18C78.1551 114.206 78.1464 112.629 79.8282 111.655C81.5101 110.685 84.2404 110.689 85.931 111.668C87.6216 112.642 87.6303 114.219 85.9485 115.193Z" fill="#5C0000"/>
<path d="M88.536 98.6937C88.2389 99.1174 87.7934 99.5149 87.1992 99.86C84.8272 101.232 80.9654 101.223 78.5802 99.8469C77.9686 99.4931 77.5143 99.0868 77.2129 98.65C77.5056 98.2044 77.9599 97.7806 78.5846 97.4224C80.9392 96.0638 84.766 96.0682 87.1381 97.4355C87.7759 97.8025 88.2433 98.235 88.5404 98.6937H88.536Z" fill="#A32430"/>
<path d="M124.115 120.091C123.154 119.104 122.131 118.16 120.934 117.474C118.689 116.186 116.024 115.915 113.464 115.543C111.73 115.29 110.004 114.975 108.288 114.604C105.225 113.94 102.207 113.093 99.2492 112.062C97.8251 111.564 96.3442 111.31 95.2608 110.179C94.8021 109.698 94.3827 109.192 93.9852 108.663C93.5309 108.016 93.1639 107.313 92.7358 106.653C92.216 105.858 91.6044 105.129 90.9579 104.439C90.5953 104.054 90.2371 103.665 89.8788 103.277C89.6954 103.08 89.5163 102.879 89.3328 102.678C89.1275 102.455 89.027 102.586 89.0314 102.857C89.0401 103.39 88.7955 104.902 88.6731 105.015C88.5596 105.12 88.3542 105.076 88.2188 105.063C87.865 105.024 87.5155 104.919 87.1791 104.806C84.178 103.81 81.3428 102.342 78.3155 101.416C78.0446 101.333 77.7039 101.276 77.5204 101.49C77.433 101.595 77.4112 101.743 77.3981 101.883C77.3719 102.259 77.3937 102.634 77.468 103.001C77.2976 102.94 77.101 103.063 77.0268 103.224C76.9481 103.39 76.9612 103.578 76.9918 103.757C77.101 104.491 77.4287 105.19 77.9136 105.745C77.4243 105.653 76.9874 106.151 76.9525 106.649C76.9132 107.143 77.1534 107.615 77.3806 108.051C77.219 108.073 77.1098 108.226 77.0617 108.379C76.8477 109.034 77.3544 109.681 77.8349 110.179C79.0843 111.476 80.3774 112.756 81.9151 113.691C83.6887 114.77 85.6982 115.347 87.6815 115.906C88.6819 116.186 89.6866 116.465 90.6695 116.801C91.8097 117.19 99.9351 120.55 101.774 121.275C105.509 122.751 109.24 124.228 112.988 125.665C114.29 126.163 115.592 126.731 116.933 127.12C117.763 127.36 118.593 127.6 119.445 127.762C120.083 127.88 120.729 127.954 121.38 127.989C122.171 128.033 122.974 128.024 123.743 127.832C124.512 127.64 125.25 127.251 125.748 126.635C127.505 124.486 125.679 121.672 124.123 120.073L124.115 120.091Z" fill="#F8DABC"/>
<path d="M76.1803 99.4239C75.9706 99.5942 75.857 99.852 75.7696 100.11C75.5599 100.752 75.5075 101.446 75.6255 102.11C75.1187 102.39 74.7867 102.932 74.6731 103.5C74.5596 104.068 74.6426 104.662 74.8086 105.216C74.5508 105.365 74.5115 105.719 74.5028 106.016C74.4853 106.662 74.494 107.379 74.9353 107.855C74.5028 108.274 74.4329 109.013 74.7824 109.506C74.9396 109.729 75.1624 109.895 75.3852 110.057C76.2371 110.686 77.1239 111.328 78.1636 111.533C78.6834 111.638 79.2164 111.625 79.745 111.59C80.3434 111.551 80.9375 111.485 81.5186 111.341C81.7108 111.293 81.9205 111.219 82.0078 111.044C82.0952 110.874 82.0384 110.668 81.9554 110.502C81.7938 110.175 81.536 109.895 81.2215 109.712C81.5098 109.585 81.8025 109.454 82.0428 109.257C82.2874 109.061 82.4796 108.781 82.5058 108.467C82.5408 108.047 82.2656 107.65 81.9073 107.431C81.5491 107.213 81.121 107.139 80.706 107.091C79.378 106.951 77.9888 107.047 76.77 106.505C76.6826 106.466 76.5953 106.422 76.5429 106.339C76.4118 106.129 76.639 105.867 76.8705 105.78C77.3598 105.601 77.8971 105.767 78.3951 105.911C79.0809 106.108 79.7886 106.256 80.5007 106.252C80.8065 106.252 81.1254 106.217 81.3919 106.06C81.6583 105.902 81.8549 105.601 81.8069 105.299C81.7676 105.055 81.5841 104.858 81.3962 104.697C80.7191 104.107 79.8716 103.714 78.9805 103.578C78.4257 103.495 77.8097 103.491 77.3772 103.128C77.1326 102.923 76.6564 102.333 76.8399 101.979C77.137 101.407 78.3208 101.979 78.714 102.137C79.0722 102.285 79.4392 102.412 79.8105 102.512C80.0027 102.565 80.1993 102.608 80.3959 102.582C80.5924 102.556 80.789 102.447 80.8677 102.268C80.9594 102.054 80.872 101.809 80.7584 101.604C80.3303 100.831 79.579 100.293 78.8319 99.8214C78.1592 99.3977 76.9054 98.821 76.1715 99.4239H76.1803Z" fill="#F7C3A1"/>
<path d="M117.099 89.2183C115.985 91.9836 115.6 94.9847 115.448 97.9597C115.203 102.809 115.561 107.684 116.513 112.446C119.253 113.114 122.136 112.948 124.91 112.437C127.225 112.013 129.593 111.297 131.305 109.68C131.423 109.571 131.537 109.453 131.607 109.305C131.694 109.112 131.694 108.894 131.69 108.684C131.545 102.066 131.384 95.3211 129.239 89.0567C128.737 87.5932 128.116 86.1473 127.146 84.9416C126.216 83.7883 124.25 82.1239 122.629 82.635C120.982 83.1505 119.515 85.0158 118.593 86.3875C117.999 87.2743 117.501 88.231 117.099 89.2227V89.2183Z" fill="#5D96D2"/>
</g>
<defs>
<clipPath id="clip0_868_37411">
<rect width="193.091" height="240" fill="white" transform="translate(0.128906 0.6875)"/>
</clipPath>
</defs>
</svg>
